<?xml version="1.0" encoding="UTF-8"?>
<svg version="1.1" xmlns="http://www.w3.org/2000/svg" width="256" height="256">
<path d="M0 0 C1.06589355 0.00081573 1.06589355 0.00081573 2.15332031 0.00164795 C13.09010271 0.04015341 23.01836668 0.79514932 33.4375 4.375 C34.12183105 4.59994141 34.80616211 4.82488281 35.51123047 5.05664062 C44.05811944 7.88676213 51.97881064 11.26188849 59.4375 16.375 C60.30503906 16.94734375 61.17257813 17.5196875 62.06640625 18.109375 C74.62977116 26.75897474 83.96753133 37.14632493 91.4375 50.375 C92.0871875 51.52097656 92.736875 52.66695312 93.40625 53.84765625 C100.93543866 67.99678834 103.63235161 82.30192199 103.67773438 98.24829102 C103.68732727 100.27598931 103.71834804 102.30262184 103.75 104.33007812 C103.96328615 130.44659918 94.21987368 154.25664087 75.94921875 172.90234375 C72.88058112 175.92325762 69.88103919 178.78725162 66.4375 181.375 C65.50550781 182.08269531 64.57351562 182.79039062 63.61328125 183.51953125 C56.02504299 189.11351492 48.29836383 193.05458915 39.4375 196.375 C38.25414062 196.8390625 37.07078125 197.303125 35.8515625 197.78125 C22.23695277 202.7742412 7.88593444 204.11250709 -6.5625 203.375 C-7.87992187 203.31828125 -9.19734375 203.2615625 -10.5546875 203.203125 C-32.42127688 201.77558839 -57.98273257 192.49050457 -72.97436523 175.8034668 C-74.18499936 174.33925239 -75.37490168 172.85795956 -76.5625 171.375 C-77.325625 170.653125 -78.08875 169.93125 -78.875 169.1875 C-97.46634871 149.7314374 -104.37907105 123.62585876 -103.8125 97.25 C-102.66340536 68.43070634 -90.58701758 44.0675486 -69.625 24.5 C-59.26702916 15.98931058 -47.40347902 9.4008118 -34.6875 5.25 C-33.57955078 4.87294922 -33.57955078 4.87294922 -32.44921875 4.48828125 C-21.6353241 0.90863848 -11.35103831 -0.03261414 0 0 Z M-48.5625 42.375 C-49.34367187 42.93960938 -50.12484375 43.50421875 -50.9296875 44.0859375 C-65.58962825 56.83182071 -73.31852677 75.53323148 -74.7265625 94.59619141 C-75.88116351 116.93291021 -70.21452281 136.54648988 -55.5625 153.375 C-54.53189453 154.60863281 -54.53189453 154.60863281 -53.48046875 155.8671875 C-42.28974988 168.23475061 -23.79173154 176.49138605 -7.28222656 177.51660156 C14.42714668 178.51598857 33.77169931 174.17308164 50.4375 159.375 C53.04164714 157.02087234 53.04164714 157.02087234 55.4375 154.375 C56.04207031 153.77558594 56.64664063 153.17617187 57.26953125 152.55859375 C69.0552506 140.32217767 74.76303577 123.17795673 75.4375 106.375 C75.47746094 105.68792969 75.51742187 105.00085938 75.55859375 104.29296875 C76.21545299 83.46666691 68.9153278 63.68189119 55.125 48.16015625 C41.71264097 34.26042952 23.15569177 26.31339951 4.03515625 25.171875 C-16.07729514 24.90519056 -32.41961342 30.25951399 -48.5625 42.375 Z " fill="#000000" transform="translate(128.5625,26.625)"/>
</svg>
