<?xml version="1.0" encoding="UTF-8"?>
<!DOCTYPE svg PUBLIC "-//W3C//DTD SVG 1.1//EN" "http://www.w3.org/Graphics/SVG/1.1/DTD/svg11.dtd">
<svg xmlns="http://www.w3.org/2000/svg" version="1.1" width="4310px" height="1769px" style="shape-rendering:geometricPrecision; text-rendering:geometricPrecision; image-rendering:optimizeQuality; fill-rule:evenodd; clip-rule:evenodd" xmlns:xlink="http://www.w3.org/1999/xlink">
<g><path style="opacity:0.916" fill="#fefffe" d="M 793.5,204.5 C 812.836,204.333 832.17,204.5 851.5,205C 852.337,206.011 852.67,207.178 852.5,208.5C 873.503,208.333 894.503,208.5 915.5,209C 916.38,210.356 916.714,211.856 916.5,213.5C 926.172,213.334 935.839,213.5 945.5,214C 947.155,215.444 947.822,217.278 947.5,219.5C 956.506,219.334 965.506,219.5 974.5,220C 976.192,221.401 976.859,223.234 976.5,225.5C 983.367,225.261 990.2,225.595 997,226.5C 999.633,227.089 1000.8,228.756 1000.5,231.5C 1005.51,231.334 1010.51,231.501 1015.5,232C 1017.67,233.174 1018.67,235.007 1018.5,237.5C 1023.91,237.229 1029.25,237.729 1034.5,239C 1035.38,240.356 1035.71,241.856 1035.5,243.5C 1039.5,243.5 1043.5,243.5 1047.5,243.5C 1047.5,245.5 1047.5,247.5 1047.5,249.5C 1052.84,249.334 1058.18,249.501 1063.5,250C 1064.86,251.584 1065.53,253.418 1065.5,255.5C 1069.18,255.335 1072.85,255.501 1076.5,256C 1077.41,257.699 1077.74,259.533 1077.5,261.5C 1081.18,261.335 1084.85,261.501 1088.5,262C 1089.41,263.699 1089.74,265.533 1089.5,267.5C 1093.23,267.177 1096.89,267.511 1100.5,268.5C 1101.31,270.071 1101.64,271.738 1101.5,273.5C 1105.23,273.177 1108.89,273.511 1112.5,274.5C 1113.31,276.071 1113.64,277.738 1113.5,279.5C 1116.9,279.18 1120.23,279.513 1123.5,280.5C 1123.89,284.85 1126.22,286.517 1130.5,285.5C 1130.5,287.5 1130.5,289.5 1130.5,291.5C 1134.5,291.5 1138.5,291.5 1142.5,291.5C 1142.5,293.5 1142.5,295.5 1142.5,297.5C 1144.5,297.5 1146.5,297.5 1148.5,297.5C 1148.5,299.167 1148.5,300.833 1148.5,302.5C 1151.85,302.335 1155.18,302.502 1158.5,303C 1160.16,304.444 1160.82,306.278 1160.5,308.5C 1165.5,307.5 1167.5,309.5 1166.5,314.5C 1170.31,314.412 1173.97,315.079 1177.5,316.5C 1178.25,317.736 1178.58,319.07 1178.5,320.5C 1182.83,320.167 1184.83,322.167 1184.5,326.5C 1189.5,325.5 1191.5,327.5 1190.5,332.5C 1195.5,331.5 1197.5,333.5 1196.5,338.5C 1198.5,338.5 1200.5,338.5 1202.5,338.5C 1202.5,340.5 1202.5,342.5 1202.5,344.5C 1205.52,344.335 1208.52,344.502 1211.5,345C 1213.16,346.444 1213.82,348.278 1213.5,350.5C 1217.83,350.167 1219.83,352.167 1219.5,356.5C 1224.5,355.5 1226.5,357.5 1225.5,362.5C 1227.5,362.5 1229.5,362.5 1231.5,362.5C 1231.5,364.5 1231.5,366.5 1231.5,368.5C 1236.5,367.5 1238.5,369.5 1237.5,374.5C 1241.83,374.167 1243.83,376.167 1243.5,380.5C 1247.83,380.167 1249.83,382.167 1249.5,386.5C 1251.72,386.178 1253.56,386.845 1255,388.5C 1255.5,391.482 1255.66,394.482 1255.5,397.5C 1257.5,397.5 1259.5,397.5 1261.5,397.5C 1261.5,399.5 1261.5,401.5 1261.5,403.5C 1266.5,402.5 1268.5,404.5 1267.5,409.5C 1272.32,409.327 1274.32,411.661 1273.5,416.5C 1275.17,416.5 1276.83,416.5 1278.5,416.5C 1278.94,420.154 1279.28,423.821 1279.5,427.5C 1281.5,427.5 1283.5,427.5 1285.5,427.5C 1285.5,429.5 1285.5,431.5 1285.5,433.5C 1290.5,432.5 1292.5,434.5 1291.5,439.5C 1293.39,439.297 1294.89,439.963 1296,441.5C 1297.04,444.757 1297.54,448.09 1297.5,451.5C 1299.17,451.5 1300.83,451.5 1302.5,451.5C 1302.5,453.5 1302.5,455.5 1302.5,457.5C 1304.72,457.178 1306.56,457.845 1308,459.5C 1308.5,462.817 1308.67,466.15 1308.5,469.5C 1310.5,469.5 1312.5,469.5 1314.5,469.5C 1314.5,473.5 1314.5,477.5 1314.5,481.5C 1316.5,481.5 1318.5,481.5 1320.5,481.5C 1320.5,485.167 1320.5,488.833 1320.5,492.5C 1322.47,492.261 1324.3,492.594 1326,493.5C 1326.5,497.152 1326.67,500.818 1326.5,504.5C 1328.47,504.261 1330.3,504.594 1332,505.5C 1332.5,509.152 1332.67,512.818 1332.5,516.5C 1334.47,516.261 1336.3,516.594 1338,517.5C 1338.5,521.152 1338.67,524.818 1338.5,528.5C 1340.5,528.5 1342.5,528.5 1344.5,528.5C 1344.5,532.5 1344.5,536.5 1344.5,540.5C 1346.47,540.261 1348.3,540.594 1350,541.5C 1350.5,547.157 1350.67,552.824 1350.5,558.5C 1352.5,558.5 1354.5,558.5 1356.5,558.5C 1356.5,562.5 1356.5,566.5 1356.5,570.5C 1358.14,570.286 1359.64,570.62 1361,571.5C 1362.35,578.761 1362.85,586.094 1362.5,593.5C 1364.47,593.261 1366.3,593.594 1368,594.5C 1368.5,600.157 1368.67,605.824 1368.5,611.5C 1370.99,611.329 1372.83,612.329 1374,614.5C 1374.5,623.494 1374.67,632.494 1374.5,641.5C 1376.47,641.261 1378.3,641.594 1380,642.5C 1380.5,652.161 1380.67,661.828 1380.5,671.5C 1384.38,670.874 1386.21,672.541 1386,676.5C 1386.67,731.5 1386.67,786.5 1386,841.5C 1384.3,842.406 1382.47,842.739 1380.5,842.5C 1380.67,853.838 1380.5,865.172 1380,876.5C 1378.6,878.192 1376.77,878.859 1374.5,878.5C 1374.67,886.507 1374.5,894.507 1374,902.5C 1374.21,906.459 1372.38,908.126 1368.5,907.5C 1368.67,913.176 1368.5,918.843 1368,924.5C 1366.3,925.406 1364.47,925.739 1362.5,925.5C 1362.67,931.176 1362.5,936.843 1362,942.5C 1360.3,943.406 1358.47,943.739 1356.5,943.5C 1356.67,949.176 1356.5,954.843 1356,960.5C 1354.3,961.406 1352.47,961.739 1350.5,961.5C 1350.67,966.511 1350.5,971.511 1350,976.5C 1348.6,978.192 1346.77,978.859 1344.5,978.5C 1344.5,982.5 1344.5,986.5 1344.5,990.5C 1342.5,990.833 1340.5,991.167 1338.5,991.5C 1338.67,995.182 1338.5,998.848 1338,1002.5C 1336.3,1003.41 1334.47,1003.74 1332.5,1003.5C 1332.5,1007.17 1332.5,1010.83 1332.5,1014.5C 1330.5,1014.5 1328.5,1014.5 1326.5,1014.5C 1326.5,1018.5 1326.5,1022.5 1326.5,1026.5C 1324.5,1026.5 1322.5,1026.5 1320.5,1026.5C 1320.67,1030.18 1320.5,1033.85 1320,1037.5C 1318.3,1038.41 1316.47,1038.74 1314.5,1038.5C 1314.67,1041.85 1314.5,1045.18 1314,1048.5C 1312.56,1050.16 1310.72,1050.82 1308.5,1050.5C 1308.5,1052.5 1308.5,1054.5 1308.5,1056.5C 1306.5,1056.5 1304.5,1056.5 1302.5,1056.5C 1302.82,1060.23 1302.49,1063.89 1301.5,1067.5C 1300.26,1068.25 1298.93,1068.58 1297.5,1068.5C 1298.5,1073.5 1296.5,1075.5 1291.5,1074.5C 1291.66,1077.52 1291.5,1080.52 1291,1083.5C 1289.83,1085.67 1287.99,1086.67 1285.5,1086.5C 1286.16,1091.17 1284.16,1093.17 1279.5,1092.5C 1279.54,1095.91 1279.04,1099.24 1278,1102.5C 1276.64,1103.38 1275.14,1103.71 1273.5,1103.5C 1274.16,1108.17 1272.16,1110.17 1267.5,1109.5C 1267.5,1111.5 1267.5,1113.5 1267.5,1115.5C 1265.5,1115.5 1263.5,1115.5 1261.5,1115.5C 1261.5,1117.5 1261.5,1119.5 1261.5,1121.5C 1259.5,1121.5 1257.5,1121.5 1255.5,1121.5C 1255.5,1123.5 1255.5,1125.5 1255.5,1127.5C 1253.5,1127.5 1251.5,1127.5 1249.5,1127.5C 1249.5,1129.5 1249.5,1131.5 1249.5,1133.5C 1247.5,1133.5 1245.5,1133.5 1243.5,1133.5C 1243.96,1137.58 1243.29,1141.42 1241.5,1145C 1240.21,1145.49 1238.87,1145.66 1237.5,1145.5C 1237.7,1149.81 1235.7,1151.81 1231.5,1151.5C 1232.13,1155.38 1230.46,1157.21 1226.5,1157C 1226.5,1161 1224.5,1163 1220.5,1163C 1219.83,1164.67 1219.17,1166.33 1218.5,1168C 1215.24,1169.04 1211.91,1169.54 1208.5,1169.5C 1209.5,1174.5 1207.5,1176.5 1202.5,1175.5C 1203.5,1180.5 1201.5,1182.5 1196.5,1181.5C 1197.5,1186.5 1195.5,1188.5 1190.5,1187.5C 1190.94,1191.91 1188.94,1193.57 1184.5,1192.5C 1184.64,1194.26 1184.31,1195.93 1183.5,1197.5C 1179.89,1198.49 1176.23,1198.82 1172.5,1198.5C 1172.5,1200.5 1172.5,1202.5 1172.5,1204.5C 1170.5,1204.5 1168.5,1204.5 1166.5,1204.5C 1166.5,1206.5 1166.5,1208.5 1166.5,1210.5C 1164.5,1210.5 1162.5,1210.5 1160.5,1210.5C 1160.74,1212.47 1160.41,1214.3 1159.5,1216C 1155.85,1216.5 1152.18,1216.67 1148.5,1216.5C 1148.5,1218.5 1148.5,1220.5 1148.5,1222.5C 1146.5,1222.5 1144.5,1222.5 1142.5,1222.5C 1142.74,1224.47 1142.41,1226.3 1141.5,1228C 1137.85,1228.5 1134.18,1228.67 1130.5,1228.5C 1130.5,1230.5 1130.5,1232.5 1130.5,1234.5C 1128.5,1234.5 1126.5,1234.5 1124.5,1234.5C 1124.82,1236.72 1124.16,1238.56 1122.5,1240C 1119.52,1240.5 1116.52,1240.66 1113.5,1240.5C 1113.17,1242.5 1112.83,1244.5 1112.5,1246.5C 1108.83,1246.5 1105.17,1246.5 1101.5,1246.5C 1101.74,1248.47 1101.41,1250.3 1100.5,1252C 1096.85,1252.5 1093.18,1252.67 1089.5,1252.5C 1089.74,1254.47 1089.41,1256.3 1088.5,1258C 1084.85,1258.5 1081.18,1258.67 1077.5,1258.5C 1077.74,1260.47 1077.41,1262.3 1076.5,1264C 1072.85,1264.5 1069.18,1264.67 1065.5,1264.5C 1065.79,1266.29 1065.45,1267.95 1064.5,1269.5C 1060.91,1270.43 1057.24,1270.76 1053.5,1270.5C 1053.77,1272.45 1053.11,1273.95 1051.5,1275C 1046.6,1276.33 1041.6,1276.83 1036.5,1276.5C 1036.82,1278.72 1036.16,1280.56 1034.5,1282C 1029.18,1282.5 1023.84,1282.67 1018.5,1282.5C 1018.71,1284.14 1018.38,1285.64 1017.5,1287C 1011.84,1287.5 1006.18,1287.67 1000.5,1287.5C 1000.5,1289.5 1000.5,1291.5 1000.5,1293.5C 994.5,1293.5 988.5,1293.5 982.5,1293.5C 982.822,1295.72 982.155,1297.56 980.5,1299C 973.174,1299.5 965.841,1299.67 958.5,1299.5C 958.643,1301.26 958.309,1302.93 957.5,1304.5C 948.184,1305.33 938.851,1305.83 929.5,1306C 929.004,1308 928.004,1309.66 926.5,1311C 911.504,1311.5 896.504,1311.67 881.5,1311.5C 881.5,1312.5 881.5,1313.5 881.5,1314.5C 838.18,1315.82 794.847,1315.82 751.5,1314.5C 751.5,1313.5 751.5,1312.5 751.5,1311.5C 737.833,1311.5 724.167,1311.5 710.5,1311.5C 710.5,1309.5 710.5,1307.5 710.5,1305.5C 699.162,1305.67 687.828,1305.5 676.5,1305C 674.845,1303.56 674.178,1301.72 674.5,1299.5C 667.159,1299.67 659.826,1299.5 652.5,1299C 651.833,1297.33 651.167,1295.67 650.5,1294C 644.833,1293.67 639.167,1293.33 633.5,1293C 632.594,1291.3 632.261,1289.47 632.5,1287.5C 626.833,1287.5 621.167,1287.5 615.5,1287.5C 615.5,1285.83 615.5,1284.17 615.5,1282.5C 610.156,1282.67 604.823,1282.5 599.5,1282C 597.808,1280.6 597.141,1278.77 597.5,1276.5C 592.087,1276.77 586.754,1276.27 581.5,1275C 579.963,1273.89 579.297,1272.39 579.5,1270.5C 576.482,1270.66 573.482,1270.5 570.5,1270C 568.329,1268.83 567.329,1266.99 567.5,1264.5C 563.818,1264.67 560.152,1264.5 556.5,1264C 555.594,1262.3 555.261,1260.47 555.5,1258.5C 552.15,1258.67 548.817,1258.5 545.5,1258C 543.808,1256.6 543.141,1254.77 543.5,1252.5C 540.15,1252.67 536.817,1252.5 533.5,1252C 532.594,1250.3 532.261,1248.47 532.5,1246.5C 528.818,1246.67 525.152,1246.5 521.5,1246C 520.594,1244.3 520.261,1242.47 520.5,1240.5C 517.15,1240.67 513.817,1240.5 510.5,1240C 509.139,1238.42 508.472,1236.58 508.5,1234.5C 506.5,1234.5 504.5,1234.5 502.5,1234.5C 502.5,1232.5 502.5,1230.5 502.5,1228.5C 498.818,1228.67 495.152,1228.5 491.5,1228C 490.594,1226.3 490.261,1224.47 490.5,1222.5C 488.5,1222.5 486.5,1222.5 484.5,1222.5C 484.5,1220.5 484.5,1218.5 484.5,1216.5C 481.091,1216.75 477.758,1216.42 474.5,1215.5C 473.756,1214.01 473.09,1212.51 472.5,1211C 467.533,1211.53 465.533,1209.37 466.5,1204.5C 464.5,1204.5 462.5,1204.5 460.5,1204.5C 460.5,1202.5 460.5,1200.5 460.5,1198.5C 457.15,1198.67 453.817,1198.5 450.5,1198C 449.594,1196.3 449.261,1194.47 449.5,1192.5C 447.5,1192.5 445.5,1192.5 443.5,1192.5C 443.5,1190.83 443.5,1189.17 443.5,1187.5C 441.5,1187.5 439.5,1187.5 437.5,1187.5C 437.5,1185.5 437.5,1183.5 437.5,1181.5C 435.5,1181.5 433.5,1181.5 431.5,1181.5C 431.5,1179.5 431.5,1177.5 431.5,1175.5C 429.5,1175.5 427.5,1175.5 425.5,1175.5C 425.5,1173.5 425.5,1171.5 425.5,1169.5C 423.5,1169.5 421.5,1169.5 419.5,1169.5C 419.5,1167.5 419.5,1165.5 419.5,1163.5C 417.5,1163.5 415.5,1163.5 413.5,1163.5C 413.5,1161.5 413.5,1159.5 413.5,1157.5C 409.694,1157.59 406.027,1156.92 402.5,1155.5C 401.583,1152.24 401.249,1148.91 401.5,1145.5C 399.5,1145.5 397.5,1145.5 395.5,1145.5C 395.5,1143.5 395.5,1141.5 395.5,1139.5C 393.5,1139.5 391.5,1139.5 389.5,1139.5C 389.5,1137.5 389.5,1135.5 389.5,1133.5C 387.5,1133.5 385.5,1133.5 383.5,1133.5C 383.5,1131.5 383.5,1129.5 383.5,1127.5C 378.5,1128.5 376.5,1126.5 377.5,1121.5C 372.5,1122.5 370.5,1120.5 371.5,1115.5C 366.839,1116.17 364.839,1114.17 365.5,1109.5C 363.856,1109.71 362.356,1109.38 361,1108.5C 360.502,1105.18 360.335,1101.85 360.5,1098.5C 358.5,1098.5 356.5,1098.5 354.5,1098.5C 354.5,1096.5 354.5,1094.5 354.5,1092.5C 352.738,1092.64 351.071,1092.31 349.5,1091.5C 348.511,1087.89 348.177,1084.23 348.5,1080.5C 346.5,1080.5 344.5,1080.5 342.5,1080.5C 342.5,1078.5 342.5,1076.5 342.5,1074.5C 340.533,1074.74 338.699,1074.41 337,1073.5C 336.501,1069.85 336.335,1066.18 336.5,1062.5C 334.5,1062.5 332.5,1062.5 330.5,1062.5C 330.5,1060.5 330.5,1058.5 330.5,1056.5C 328.533,1056.74 326.699,1056.41 325,1055.5C 324.501,1051.85 324.335,1048.18 324.5,1044.5C 322.5,1044.5 320.5,1044.5 318.5,1044.5C 318.5,1040.5 318.5,1036.5 318.5,1032.5C 316.5,1032.5 314.5,1032.5 312.5,1032.5C 312.5,1030.5 312.5,1028.5 312.5,1026.5C 310.278,1026.82 308.444,1026.16 307,1024.5C 306.502,1021.18 306.335,1017.85 306.5,1014.5C 304.856,1014.71 303.356,1014.38 302,1013.5C 300.729,1008.25 300.229,1002.91 300.5,997.5C 298.533,997.739 296.699,997.406 295,996.5C 294.501,992.848 294.335,989.182 294.5,985.5C 292.533,985.739 290.699,985.406 289,984.5C 288.501,980.514 288.334,976.514 288.5,972.5C 286.856,972.714 285.356,972.38 284,971.5C 282.729,966.246 282.229,960.913 282.5,955.5C 279.762,956.035 277.928,955.035 277,952.5C 276.501,947.511 276.334,942.511 276.5,937.5C 274.856,937.714 273.356,937.38 272,936.5C 271.501,930.843 271.334,925.176 271.5,919.5C 269.533,919.739 267.699,919.406 266,918.5C 265.667,911.167 265.333,903.833 265,896.5C 263.333,895.833 261.667,895.167 260,894.5C 259.5,883.172 259.333,871.838 259.5,860.5C 257.5,860.5 255.5,860.5 253.5,860.5C 253.5,844.833 253.5,829.167 253.5,813.5C 252.167,813.5 250.833,813.5 249.5,813.5C 249.5,779.833 249.5,746.167 249.5,712.5C 250.833,712.5 252.167,712.5 253.5,712.5C 253.5,696.833 253.5,681.167 253.5,665.5C 255.5,665.5 257.5,665.5 259.5,665.5C 259.333,654.162 259.5,642.828 260,631.5C 261.444,629.845 263.278,629.178 265.5,629.5C 265.334,622.159 265.5,614.826 266,607.5C 267.667,606.833 269.333,606.167 271,605.5C 271.17,599.804 271.67,594.138 272.5,588.5C 273.736,587.754 275.07,587.421 276.5,587.5C 276.334,582.489 276.501,577.489 277,572.5C 278.401,570.808 280.234,570.141 282.5,570.5C 282.248,565.615 282.581,560.781 283.5,556C 284.207,553.46 285.873,552.293 288.5,552.5C 288.335,548.818 288.501,545.152 289,541.5C 290.699,540.594 292.533,540.261 294.5,540.5C 294.335,536.818 294.501,533.152 295,529.5C 296.699,528.594 298.533,528.261 300.5,528.5C 300.447,522.804 300.78,517.138 301.5,511.5C 303.167,511.5 304.833,511.5 306.5,511.5C 306.335,508.15 306.502,504.817 307,501.5C 308.401,499.808 310.234,499.141 312.5,499.5C 311.094,494.069 313.094,491.735 318.5,492.5C 318.5,488.833 318.5,485.167 318.5,481.5C 320.5,481.5 322.5,481.5 324.5,481.5C 324.335,477.818 324.501,474.152 325,470.5C 326.699,469.594 328.533,469.261 330.5,469.5C 330.335,466.15 330.502,462.817 331,459.5C 332.444,457.845 334.278,457.178 336.5,457.5C 336.5,455.5 336.5,453.5 336.5,451.5C 338.5,451.5 340.5,451.5 342.5,451.5C 342.335,448.15 342.502,444.817 343,441.5C 344.444,439.845 346.278,439.178 348.5,439.5C 348.5,437.5 348.5,435.5 348.5,433.5C 350.5,433.5 352.5,433.5 354.5,433.5C 354.5,431.5 354.5,429.5 354.5,427.5C 356.5,427.5 358.5,427.5 360.5,427.5C 360.335,424.15 360.502,420.817 361,417.5C 362.356,416.62 363.856,416.286 365.5,416.5C 364.677,411.661 366.677,409.327 371.5,409.5C 370.5,404.5 372.5,402.5 377.5,403.5C 376.5,398.5 378.5,396.5 383.5,397.5C 383.5,395.833 383.5,394.167 383.5,392.5C 385.5,392.5 387.5,392.5 389.5,392.5C 389.392,388.753 389.892,385.086 391,381.5C 392.356,380.62 393.856,380.286 395.5,380.5C 395.167,376.167 397.167,374.167 401.5,374.5C 401.194,370.303 403.194,368.303 407.5,368.5C 407.194,364.303 409.194,362.303 413.5,362.5C 413.194,358.303 415.194,356.303 419.5,356.5C 419.472,354.418 420.139,352.584 421.5,351C 424.817,350.502 428.15,350.335 431.5,350.5C 431.5,348.5 431.5,346.5 431.5,344.5C 433.5,344.5 435.5,344.5 437.5,344.5C 437.5,342.5 437.5,340.5 437.5,338.5C 439.5,338.5 441.5,338.5 443.5,338.5C 443.5,336.5 443.5,334.5 443.5,332.5C 445.5,332.5 447.5,332.5 449.5,332.5C 448.5,327.5 450.5,325.5 455.5,326.5C 455.286,324.856 455.62,323.356 456.5,322C 459.757,320.957 463.09,320.457 466.5,320.5C 465.5,315.5 467.5,313.5 472.5,314.5C 472.172,309.582 474.505,307.582 479.5,308.5C 479.286,306.856 479.62,305.356 480.5,304C 483.757,302.957 487.09,302.457 490.5,302.5C 490.5,300.833 490.5,299.167 490.5,297.5C 492.5,297.5 494.5,297.5 496.5,297.5C 496.178,295.278 496.845,293.444 498.5,292C 501.817,291.502 505.15,291.335 508.5,291.5C 508.5,289.5 508.5,287.5 508.5,285.5C 512.5,285.5 516.5,285.5 520.5,285.5C 520.5,283.5 520.5,281.5 520.5,279.5C 522.5,279.5 524.5,279.5 526.5,279.5C 526.178,277.278 526.845,275.444 528.5,274C 531.817,273.502 535.15,273.335 538.5,273.5C 538.178,271.278 538.845,269.444 540.5,268C 543.482,267.502 546.482,267.335 549.5,267.5C 549.833,265.5 550.167,263.5 550.5,261.5C 554.5,261.5 558.5,261.5 562.5,261.5C 562.141,259.234 562.808,257.401 564.5,256C 569.489,255.501 574.489,255.334 579.5,255.5C 579.5,253.5 579.5,251.5 579.5,249.5C 583.5,249.5 587.5,249.5 591.5,249.5C 591.261,247.533 591.594,245.699 592.5,244C 598.157,243.501 603.824,243.334 609.5,243.5C 609.261,241.533 609.594,239.699 610.5,238C 614.152,237.501 617.818,237.335 621.5,237.5C 621.286,235.856 621.62,234.356 622.5,233C 629.761,231.652 637.094,231.152 644.5,231.5C 644.261,229.533 644.594,227.699 645.5,226C 651.157,225.501 656.824,225.334 662.5,225.5C 662.2,222.756 663.367,221.089 666,220.5C 674.803,219.571 683.636,219.237 692.5,219.5C 692.261,217.533 692.594,215.699 693.5,214C 704.828,213.5 716.162,213.333 727.5,213.5C 727.286,211.856 727.62,210.356 728.5,209C 750.164,208.5 771.831,208.333 793.5,208.5C 793.5,207.167 793.5,205.833 793.5,204.5 Z M 780.5,338.5 C 804.5,338.5 828.5,338.5 852.5,338.5C 852.534,342.309 854.534,344.143 858.5,344C 870.495,344.5 882.495,344.667 894.5,344.5C 893.874,348.375 895.541,350.209 899.5,350C 907.493,350.5 915.493,350.666 923.5,350.5C 923.178,352.722 923.845,354.556 925.5,356C 930.823,356.499 936.156,356.666 941.5,356.5C 941.297,358.39 941.963,359.89 943.5,361C 948.823,361.499 954.156,361.666 959.5,361.5C 959.141,363.766 959.808,365.599 961.5,367C 966.823,367.499 972.156,367.666 977.5,367.5C 977.5,369.5 977.5,371.5 977.5,373.5C 981.167,373.5 984.833,373.5 988.5,373.5C 988.357,375.262 988.691,376.929 989.5,378.5C 993.122,379.325 996.789,379.825 1000.5,380C 1001.09,381.509 1001.76,383.009 1002.5,384.5C 1005.78,385.254 1009.11,385.754 1012.5,386C 1013,387.996 1014,389.663 1015.5,391C 1018.48,391.498 1021.48,391.665 1024.5,391.5C 1024.26,393.467 1024.59,395.301 1025.5,397C 1029.15,397.499 1032.82,397.665 1036.5,397.5C 1036.5,399.5 1036.5,401.5 1036.5,403.5C 1038.5,403.5 1040.5,403.5 1042.5,403.5C 1042.47,405.582 1043.14,407.416 1044.5,409C 1047.82,409.498 1051.15,409.665 1054.5,409.5C 1054.5,411.5 1054.5,413.5 1054.5,415.5C 1056.5,415.5 1058.5,415.5 1060.5,415.5C 1060.29,417.144 1060.62,418.644 1061.5,420C 1064.76,421.043 1068.09,421.543 1071.5,421.5C 1070.5,426.5 1072.5,428.5 1077.5,427.5C 1076.83,432.161 1078.83,434.161 1083.5,433.5C 1083.33,438.323 1085.66,440.323 1090.5,439.5C 1089.87,443.375 1091.54,445.209 1095.5,445C 1096.17,446.667 1096.83,448.333 1097.5,450C 1100.82,450.498 1104.15,450.665 1107.5,450.5C 1107.5,452.5 1107.5,454.5 1107.5,456.5C 1109.5,456.5 1111.5,456.5 1113.5,456.5C 1113.5,458.5 1113.5,460.5 1113.5,462.5C 1115.5,462.5 1117.5,462.5 1119.5,462.5C 1119.5,464.5 1119.5,466.5 1119.5,468.5C 1121.5,468.5 1123.5,468.5 1125.5,468.5C 1125.33,471.85 1125.5,475.183 1126,478.5C 1127.44,480.155 1129.28,480.822 1131.5,480.5C 1131.17,484.833 1133.17,486.833 1137.5,486.5C 1137.5,488.5 1137.5,490.5 1137.5,492.5C 1139.5,492.5 1141.5,492.5 1143.5,492.5C 1143.5,494.5 1143.5,496.5 1143.5,498.5C 1145.5,498.5 1147.5,498.5 1149.5,498.5C 1149.33,501.85 1149.5,505.183 1150,508.5C 1151.67,509.167 1153.33,509.833 1155,510.5C 1154.41,514.898 1156.24,516.898 1160.5,516.5C 1159.5,521.5 1161.5,523.5 1166.5,522.5C 1166.33,525.85 1166.5,529.183 1167,532.5C 1168.44,534.155 1170.28,534.822 1172.5,534.5C 1172.46,537.91 1172.96,541.243 1174,544.5C 1175.36,545.38 1176.86,545.714 1178.5,545.5C 1178.5,547.5 1178.5,549.5 1178.5,551.5C 1180.5,551.5 1182.5,551.5 1184.5,551.5C 1184.33,555.182 1184.5,558.848 1185,562.5C 1186.7,563.406 1188.53,563.739 1190.5,563.5C 1190.33,567.182 1190.5,570.848 1191,574.5C 1192.7,575.406 1194.53,575.739 1196.5,575.5C 1196.5,579.5 1196.5,583.5 1196.5,587.5C 1198.5,587.5 1200.5,587.5 1202.5,587.5C 1202.5,593.167 1202.5,598.833 1202.5,604.5C 1204.5,604.833 1206.5,605.167 1208.5,605.5C 1208.33,610.511 1208.5,615.511 1209,620.5C 1210.4,622.192 1212.23,622.859 1214.5,622.5C 1214.33,627.844 1214.5,633.177 1215,638.5C 1216.44,640.155 1218.28,640.822 1220.5,640.5C 1220.5,646.5 1220.5,652.5 1220.5,658.5C 1222.5,658.5 1224.5,658.5 1226.5,658.5C 1226.5,668.5 1226.5,678.5 1226.5,688.5C 1228.5,688.5 1230.5,688.5 1232.5,688.5C 1232.5,706.167 1232.5,723.833 1232.5,741.5C 1234.5,741.5 1236.5,741.5 1238.5,741.5C 1238.5,755.5 1238.5,769.5 1238.5,783.5C 1236.53,783.261 1234.7,783.594 1233,784.5C 1232.5,802.164 1232.33,819.83 1232.5,837.5C 1230.5,837.5 1228.5,837.5 1226.5,837.5C 1226.5,847.167 1226.5,856.833 1226.5,866.5C 1224.53,866.261 1222.7,866.594 1221,867.5C 1220.67,873.167 1220.33,878.833 1220,884.5C 1218,884.996 1216.34,885.996 1215,887.5C 1214.5,894.492 1214.33,901.492 1214.5,908.5C 1212.5,908.5 1210.5,908.5 1208.5,908.5C 1208.5,912.5 1208.5,916.5 1208.5,920.5C 1206.42,920.472 1204.58,921.139 1203,922.5C 1202.5,927.823 1202.33,933.156 1202.5,938.5C 1200.5,938.5 1198.5,938.5 1196.5,938.5C 1196.5,942.167 1196.5,945.833 1196.5,949.5C 1194.71,949.215 1193.05,949.548 1191.5,950.5C 1190.57,954.094 1190.24,957.76 1190.5,961.5C 1188.53,961.261 1186.7,961.594 1185,962.5C 1184.5,966.152 1184.33,969.818 1184.5,973.5C 1182.53,973.261 1180.7,973.594 1179,974.5C 1178.5,978.152 1178.33,981.818 1178.5,985.5C 1176.5,985.5 1174.5,985.5 1172.5,985.5C 1172.5,987.5 1172.5,989.5 1172.5,991.5C 1170.86,991.286 1169.36,991.62 1168,992.5C 1166.66,996.026 1166.16,999.692 1166.5,1003.5C 1161.5,1002.5 1159.5,1004.5 1160.5,1009.5C 1158.83,1009.5 1157.17,1009.5 1155.5,1009.5C 1155.5,1013.5 1155.5,1017.5 1155.5,1021.5C 1153.5,1021.5 1151.5,1021.5 1149.5,1021.5C 1149.5,1023.5 1149.5,1025.5 1149.5,1027.5C 1147.5,1027.5 1145.5,1027.5 1143.5,1027.5C 1143.5,1029.5 1143.5,1031.5 1143.5,1033.5C 1141.5,1033.5 1139.5,1033.5 1137.5,1033.5C 1137.5,1035.5 1137.5,1037.5 1137.5,1039.5C 1133.17,1038.45 1131,1040.12 1131,1044.5C 1127.09,1045.24 1125.26,1047.57 1125.5,1051.5C 1123.28,1051.18 1121.44,1051.84 1120,1053.5C 1119.5,1056.48 1119.34,1059.48 1119.5,1062.5C 1117.5,1062.5 1115.5,1062.5 1113.5,1062.5C 1113.5,1064.5 1113.5,1066.5 1113.5,1068.5C 1109.82,1068.72 1106.15,1069.06 1102.5,1069.5C 1103.5,1074.5 1101.5,1076.5 1096.5,1075.5C 1096.5,1077.17 1096.5,1078.83 1096.5,1080.5C 1094.5,1080.5 1092.5,1080.5 1090.5,1080.5C 1090.17,1082.5 1089.83,1084.5 1089.5,1086.5C 1084.84,1085.83 1082.84,1087.83 1083.5,1092.5C 1078.5,1091.5 1076.5,1093.5 1077.5,1098.5C 1074.48,1098.34 1071.48,1098.5 1068.5,1099C 1066.84,1100.44 1066.18,1102.28 1066.5,1104.5C 1064.5,1104.5 1062.5,1104.5 1060.5,1104.5C 1060.5,1106.5 1060.5,1108.5 1060.5,1110.5C 1058.5,1110.5 1056.5,1110.5 1054.5,1110.5C 1054.5,1112.5 1054.5,1114.5 1054.5,1116.5C 1050.5,1116.5 1046.5,1116.5 1042.5,1116.5C 1042.5,1118.5 1042.5,1120.5 1042.5,1122.5C 1039.15,1122.33 1035.82,1122.5 1032.5,1123C 1030.84,1124.44 1030.18,1126.28 1030.5,1128.5C 1028.5,1128.5 1026.5,1128.5 1024.5,1128.5C 1024.5,1130.17 1024.5,1131.83 1024.5,1133.5C 1020.82,1133.33 1017.15,1133.5 1013.5,1134C 1012.59,1135.7 1012.26,1137.53 1012.5,1139.5C 1008.82,1139.33 1005.15,1139.5 1001.5,1140C 1000.59,1141.7 1000.26,1143.53 1000.5,1145.5C 995.087,1145.23 989.754,1145.73 984.5,1147C 983.62,1148.36 983.286,1149.86 983.5,1151.5C 979.818,1151.33 976.152,1151.5 972.5,1152C 971.594,1153.7 971.261,1155.53 971.5,1157.5C 966.156,1157.33 960.823,1157.5 955.5,1158C 953.808,1159.4 953.141,1161.23 953.5,1163.5C 948.156,1163.33 942.823,1163.5 937.5,1164C 935.808,1165.4 935.141,1167.23 935.5,1169.5C 927.804,1169.17 920.138,1169.5 912.5,1170.5C 911.691,1172.07 911.357,1173.74 911.5,1175.5C 900.162,1175.33 888.828,1175.5 877.5,1176C 876.594,1177.7 876.261,1179.53 876.5,1181.5C 838.833,1181.5 801.167,1181.5 763.5,1181.5C 763.643,1179.74 763.309,1178.07 762.5,1176.5C 750.852,1175.5 739.186,1175.17 727.5,1175.5C 727.5,1173.5 727.5,1171.5 727.5,1169.5C 719.5,1169.5 711.5,1169.5 703.5,1169.5C 703.739,1167.53 703.406,1165.7 702.5,1164C 696.843,1163.5 691.176,1163.33 685.5,1163.5C 685.739,1161.53 685.406,1159.7 684.5,1158C 679.177,1157.5 673.844,1157.33 668.5,1157.5C 668.739,1155.53 668.406,1153.7 667.5,1152C 663.848,1151.5 660.182,1151.33 656.5,1151.5C 656.617,1149.52 655.95,1147.85 654.5,1146.5C 651.242,1145.58 647.909,1145.25 644.5,1145.5C 644.703,1143.61 644.037,1142.11 642.5,1141C 639.243,1139.96 635.91,1139.46 632.5,1139.5C 632.703,1137.61 632.037,1136.11 630.5,1135C 627.274,1133.8 623.941,1133.3 620.5,1133.5C 620.703,1131.61 620.037,1130.11 618.5,1129C 615.183,1128.5 611.85,1128.33 608.5,1128.5C 608.5,1126.5 608.5,1124.5 608.5,1122.5C 604.5,1122.5 600.5,1122.5 596.5,1122.5C 596.5,1120.5 596.5,1118.5 596.5,1116.5C 592.219,1117.52 589.886,1115.85 589.5,1111.5C 586.232,1110.51 582.898,1110.18 579.5,1110.5C 580.5,1105.5 578.5,1103.5 573.5,1104.5C 573.643,1102.74 573.309,1101.07 572.5,1099.5C 568.893,1098.51 565.226,1098.18 561.5,1098.5C 561.5,1096.5 561.5,1094.5 561.5,1092.5C 559.5,1092.5 557.5,1092.5 555.5,1092.5C 555.5,1090.5 555.5,1088.5 555.5,1086.5C 553.5,1086.5 551.5,1086.5 549.5,1086.5C 550.5,1081.5 548.5,1079.5 543.5,1080.5C 544.168,1075.84 542.168,1073.84 537.5,1074.5C 537.761,1070.96 536.095,1069.12 532.5,1069C 531.74,1067.56 531.074,1066.06 530.5,1064.5C 526.751,1064.25 524.917,1062.25 525,1058.5C 523.601,1057.77 522.101,1057.27 520.5,1057C 519.91,1055.49 519.244,1053.99 518.5,1052.5C 514.303,1052.07 512.47,1049.74 513,1045.5C 511.301,1044.59 509.467,1044.26 507.5,1044.5C 507.5,1042.83 507.5,1041.17 507.5,1039.5C 505.833,1039.5 504.167,1039.5 502.5,1039.5C 502.5,1037.5 502.5,1035.5 502.5,1033.5C 500.5,1033.5 498.5,1033.5 496.5,1033.5C 496.5,1031.5 496.5,1029.5 496.5,1027.5C 494.5,1027.5 492.5,1027.5 490.5,1027.5C 490.76,1023.65 490.094,1019.99 488.5,1016.5C 487.264,1015.75 485.93,1015.42 484.5,1015.5C 485.5,1010.5 483.5,1008.5 478.5,1009.5C 478.5,1007.5 478.5,1005.5 478.5,1003.5C 476.5,1003.5 474.5,1003.5 472.5,1003.5C 472.665,999.818 472.499,996.152 472,992.5C 470.301,991.594 468.467,991.261 466.5,991.5C 466.751,988.091 466.417,984.758 465.5,981.5C 463.955,980.548 462.288,980.215 460.5,980.5C 461.906,975.069 459.906,972.735 454.5,973.5C 454.665,969.818 454.499,966.152 454,962.5C 452.301,961.594 450.467,961.261 448.5,961.5C 448.665,957.818 448.499,954.152 448,950.5C 446.301,949.594 444.467,949.261 442.5,949.5C 442.5,945.833 442.5,942.167 442.5,938.5C 440.5,938.5 438.5,938.5 436.5,938.5C 436.666,933.156 436.499,927.823 436,922.5C 434.556,920.845 432.722,920.178 430.5,920.5C 430.5,916.5 430.5,912.5 430.5,908.5C 428.5,908.5 426.5,908.5 424.5,908.5C 424.5,902.5 424.5,896.5 424.5,890.5C 422.5,890.5 420.5,890.5 418.5,890.5C 418.666,883.159 418.5,875.826 418,868.5C 416.644,867.62 415.144,867.286 413.5,867.5C 413.666,860.159 413.5,852.826 413,845.5C 411.599,843.808 409.766,843.141 407.5,843.5C 407.667,831.829 407.5,820.162 407,808.5C 405.301,807.594 403.467,807.261 401.5,807.5C 401.5,775.833 401.5,744.167 401.5,712.5C 403.722,712.822 405.556,712.155 407,710.5C 407.5,699.172 407.667,687.838 407.5,676.5C 411.192,676.305 413.026,674.305 413,670.5C 413.5,662.507 413.666,654.507 413.5,646.5C 415.167,646.5 416.833,646.5 418.5,646.5C 418.334,640.824 418.501,635.157 419,629.5C 420.667,628.833 422.333,628.167 424,627.5C 424.499,622.177 424.666,616.844 424.5,611.5C 426.262,611.643 427.929,611.309 429.5,610.5C 430.495,604.872 430.829,599.206 430.5,593.5C 432.5,593.5 434.5,593.5 436.5,593.5C 436.5,589.5 436.5,585.5 436.5,581.5C 438.467,581.739 440.301,581.406 442,580.5C 442.499,576.848 442.665,573.182 442.5,569.5C 444.722,569.822 446.556,569.155 448,567.5C 448.498,564.183 448.665,560.85 448.5,557.5C 450.467,557.739 452.301,557.406 454,556.5C 454.499,552.848 454.665,549.182 454.5,545.5C 456.5,545.5 458.5,545.5 460.5,545.5C 460.5,541.833 460.5,538.167 460.5,534.5C 465.906,535.265 467.906,532.931 466.5,527.5C 468.288,527.785 469.955,527.452 471.5,526.5C 472.417,523.242 472.751,519.909 472.5,516.5C 477.906,517.265 479.906,514.931 478.5,509.5C 480.167,509.5 481.833,509.5 483.5,509.5C 483.942,505.846 484.276,502.179 484.5,498.5C 486.5,498.5 488.5,498.5 490.5,498.5C 490.5,496.5 490.5,494.5 490.5,492.5C 495.5,493.5 497.5,491.5 496.5,486.5C 501.161,487.168 503.161,485.168 502.5,480.5C 506.314,480.349 507.981,478.349 507.5,474.5C 512.161,475.168 514.161,473.168 513.5,468.5C 515.722,468.822 517.556,468.155 519,466.5C 519.498,463.183 519.665,459.85 519.5,456.5C 522.85,456.665 526.183,456.498 529.5,456C 531.155,454.556 531.822,452.722 531.5,450.5C 535.251,450.918 537.418,449.251 538,445.5C 541.436,444.9 543.269,442.9 543.5,439.5C 548.168,440.161 550.168,438.161 549.5,433.5C 554.5,434.5 556.5,432.5 555.5,427.5C 557.5,427.5 559.5,427.5 561.5,427.5C 561.5,425.5 561.5,423.5 561.5,421.5C 565.179,421.276 568.846,420.942 572.5,420.5C 572.5,418.833 572.5,417.167 572.5,415.5C 577.931,416.906 580.265,414.906 579.5,409.5C 582.518,409.665 585.518,409.498 588.5,409C 590.155,407.556 590.822,405.722 590.5,403.5C 592.5,403.5 594.5,403.5 596.5,403.5C 596.5,401.5 596.5,399.5 596.5,397.5C 600.182,397.665 603.848,397.499 607.5,397C 608.406,395.301 608.739,393.467 608.5,391.5C 611.85,391.665 615.183,391.498 618.5,391C 620.155,389.556 620.822,387.722 620.5,385.5C 624.584,385.957 628.417,385.29 632,383.5C 632.49,382.207 632.657,380.873 632.5,379.5C 636.182,379.665 639.848,379.499 643.5,379C 644.406,377.301 644.739,375.467 644.5,373.5C 648.182,373.665 651.848,373.499 655.5,373C 656.406,371.301 656.739,369.467 656.5,367.5C 661.844,367.666 667.177,367.499 672.5,367C 673.167,365.333 673.833,363.667 674.5,362C 679.833,361.667 685.167,361.333 690.5,361C 691.38,359.644 691.714,358.144 691.5,356.5C 696.844,356.666 702.177,356.499 707.5,356C 709.192,354.599 709.859,352.766 709.5,350.5C 717.507,350.666 725.507,350.5 733.5,350C 737.459,350.209 739.126,348.375 738.5,344.5C 750.838,344.667 763.171,344.5 775.5,344C 779.459,344.209 781.126,342.375 780.5,338.5 Z"/></g>
<g><path style="opacity:0.896" fill="#fefffe" d="M 2218.5,350.5 C 2261.17,350.167 2303.84,350.5 2346.5,351.5C 2347.31,353.071 2347.64,354.738 2347.5,356.5C 2356.51,356.334 2365.51,356.5 2374.5,357C 2376.16,358.444 2376.82,360.278 2376.5,362.5C 2382.18,362.334 2387.84,362.501 2393.5,363C 2394.41,364.699 2394.74,366.533 2394.5,368.5C 2399.51,368.334 2404.51,368.501 2409.5,369C 2412.04,369.928 2413.04,371.762 2412.5,374.5C 2416.23,374.177 2419.89,374.511 2423.5,375.5C 2424.31,377.071 2424.64,378.738 2424.5,380.5C 2428.18,380.335 2431.85,380.501 2435.5,381C 2436.41,382.699 2436.74,384.533 2436.5,386.5C 2440.18,386.335 2443.85,386.501 2447.5,387C 2448.41,388.699 2448.74,390.533 2448.5,392.5C 2451.85,392.335 2455.18,392.502 2458.5,393C 2459.38,394.356 2459.71,395.856 2459.5,397.5C 2464.5,396.5 2466.5,398.5 2465.5,403.5C 2469.35,403.24 2473.01,403.906 2476.5,405.5C 2477.25,406.736 2477.58,408.07 2477.5,409.5C 2482.17,408.839 2484.17,410.839 2483.5,415.5C 2488.5,414.5 2490.5,416.5 2489.5,421.5C 2491.5,421.5 2493.5,421.5 2495.5,421.5C 2495.5,423.5 2495.5,425.5 2495.5,427.5C 2497.5,427.5 2499.5,427.5 2501.5,427.5C 2501.5,429.5 2501.5,431.5 2501.5,433.5C 2503.5,433.5 2505.5,433.5 2507.5,433.5C 2507.5,435.5 2507.5,437.5 2507.5,439.5C 2509.5,439.5 2511.5,439.5 2513.5,439.5C 2513.5,441.5 2513.5,443.5 2513.5,445.5C 2515.5,445.5 2517.5,445.5 2519.5,445.5C 2519.5,447.5 2519.5,449.5 2519.5,451.5C 2521.5,451.5 2523.5,451.5 2525.5,451.5C 2525.5,453.5 2525.5,455.5 2525.5,457.5C 2530.5,456.5 2532.5,458.5 2531.5,463.5C 2536.5,462.5 2538.5,464.5 2537.5,469.5C 2539.45,469.227 2540.95,469.893 2542,471.5C 2542.5,474.817 2542.67,478.15 2542.5,481.5C 2544.5,481.5 2546.5,481.5 2548.5,481.5C 2548.5,483.167 2548.5,484.833 2548.5,486.5C 2550.26,486.357 2551.93,486.691 2553.5,487.5C 2554.49,491.107 2554.82,494.774 2554.5,498.5C 2556.47,498.261 2558.3,498.594 2560,499.5C 2560.5,503.152 2560.67,506.818 2560.5,510.5C 2562.47,510.261 2564.3,510.594 2566,511.5C 2566.5,515.152 2566.67,518.818 2566.5,522.5C 2568.5,522.5 2570.5,522.5 2572.5,522.5C 2572.5,526.5 2572.5,530.5 2572.5,534.5C 2574.47,534.261 2576.3,534.594 2578,535.5C 2578.5,541.157 2578.67,546.824 2578.5,552.5C 2580.5,552.5 2582.5,552.5 2584.5,552.5C 2584.5,558.5 2584.5,564.5 2584.5,570.5C 2586.5,570.5 2588.5,570.5 2590.5,570.5C 2590.5,578.167 2590.5,585.833 2590.5,593.5C 2592.26,593.357 2593.93,593.691 2595.5,594.5C 2596.5,612.154 2596.83,629.821 2596.5,647.5C 2598.14,647.286 2599.64,647.62 2601,648.5C 2603.13,657.561 2602.96,666.561 2600.5,675.5C 2599.26,676.246 2597.93,676.579 2596.5,676.5C 2596.5,694.167 2596.5,711.833 2596.5,729.5C 2594.5,729.5 2592.5,729.5 2590.5,729.5C 2590.67,737.174 2590.5,744.841 2590,752.5C 2588.3,753.406 2586.47,753.739 2584.5,753.5C 2584.5,759.5 2584.5,765.5 2584.5,771.5C 2582.5,771.5 2580.5,771.5 2578.5,771.5C 2578.83,777.206 2578.5,782.872 2577.5,788.5C 2575.93,789.309 2574.26,789.643 2572.5,789.5C 2572.67,793.182 2572.5,796.848 2572,800.5C 2570.3,801.406 2568.47,801.739 2566.5,801.5C 2566.67,805.182 2566.5,808.848 2566,812.5C 2564.3,813.406 2562.47,813.739 2560.5,813.5C 2560.5,817.167 2560.5,820.833 2560.5,824.5C 2558.5,824.5 2556.5,824.5 2554.5,824.5C 2554.67,827.85 2554.5,831.183 2554,834.5C 2552.6,836.192 2550.77,836.859 2548.5,836.5C 2548.5,838.5 2548.5,840.5 2548.5,842.5C 2546.5,842.5 2544.5,842.5 2542.5,842.5C 2542.67,845.85 2542.5,849.183 2542,852.5C 2540.89,854.037 2539.39,854.703 2537.5,854.5C 2538.16,859.168 2536.16,861.168 2531.5,860.5C 2532.5,865.5 2530.5,867.5 2525.5,866.5C 2525.5,868.5 2525.5,870.5 2525.5,872.5C 2523.5,872.5 2521.5,872.5 2519.5,872.5C 2519.5,874.5 2519.5,876.5 2519.5,878.5C 2517.5,878.5 2515.5,878.5 2513.5,878.5C 2514.5,883.5 2512.5,885.5 2507.5,884.5C 2507.5,886.5 2507.5,888.5 2507.5,890.5C 2505.5,890.5 2503.5,890.5 2501.5,890.5C 2501.5,892.5 2501.5,894.5 2501.5,896.5C 2499.5,896.5 2497.5,896.5 2495.5,896.5C 2495.5,898.5 2495.5,900.5 2495.5,902.5C 2493.5,902.5 2491.5,902.5 2489.5,902.5C 2490.5,907.5 2488.5,909.5 2483.5,908.5C 2483.5,910.167 2483.5,911.833 2483.5,913.5C 2481.5,913.5 2479.5,913.5 2477.5,913.5C 2477.82,915.722 2477.16,917.556 2475.5,919C 2472.18,919.498 2468.85,919.665 2465.5,919.5C 2465.5,921.5 2465.5,923.5 2465.5,925.5C 2463.5,925.5 2461.5,925.5 2459.5,925.5C 2459.64,927.262 2459.31,928.929 2458.5,930.5C 2455.23,931.487 2451.9,931.82 2448.5,931.5C 2448.74,933.467 2448.41,935.301 2447.5,937C 2443.85,937.499 2440.18,937.665 2436.5,937.5C 2436.74,939.467 2436.41,941.301 2435.5,943C 2431.85,943.499 2428.18,943.665 2424.5,943.5C 2424.74,945.467 2424.41,947.301 2423.5,949C 2419.85,949.499 2416.18,949.665 2412.5,949.5C 2412.74,951.467 2412.41,953.301 2411.5,955C 2405.84,955.499 2400.18,955.666 2394.5,955.5C 2394.5,957.5 2394.5,959.5 2394.5,961.5C 2388.5,961.5 2382.5,961.5 2376.5,961.5C 2376.5,963.5 2376.5,965.5 2376.5,967.5C 2368.83,967.5 2361.17,967.5 2353.5,967.5C 2353.82,969.722 2353.16,971.556 2351.5,973C 2336.17,973.5 2320.84,973.667 2305.5,973.5C 2305.74,975.467 2305.41,977.301 2304.5,979C 2288.17,979.667 2271.83,979.667 2255.5,979C 2253.33,977.826 2252.33,975.993 2252.5,973.5C 2238.5,973.667 2224.5,973.5 2210.5,973C 2206.54,973.209 2204.87,971.375 2205.5,967.5C 2198.49,967.666 2191.49,967.5 2184.5,967C 2182.33,965.826 2181.33,963.993 2181.5,961.5C 2175.83,961.5 2170.17,961.5 2164.5,961.5C 2164.17,959.5 2163.83,957.5 2163.5,955.5C 2159.82,955.665 2156.15,955.499 2152.5,955C 2151.59,953.301 2151.26,951.467 2151.5,949.5C 2146.49,949.666 2141.49,949.499 2136.5,949C 2135.13,947.559 2134.13,945.892 2133.5,944C 2130.5,943.667 2127.5,943.333 2124.5,943C 2122.84,941.556 2122.18,939.722 2122.5,937.5C 2120.5,937.5 2118.5,937.5 2116.5,937.5C 2116.5,935.5 2116.5,933.5 2116.5,931.5C 2112.5,931.5 2108.5,931.5 2104.5,931.5C 2104.5,929.5 2104.5,927.5 2104.5,925.5C 2101.15,925.665 2097.82,925.498 2094.5,925C 2092.84,923.556 2092.18,921.722 2092.5,919.5C 2090.5,919.5 2088.5,919.5 2086.5,919.5C 2086.5,917.5 2086.5,915.5 2086.5,913.5C 2084.5,913.5 2082.5,913.5 2080.5,913.5C 2080.5,911.833 2080.5,910.167 2080.5,908.5C 2077.09,908.543 2073.76,908.043 2070.5,907C 2070.38,902.387 2068.05,900.554 2063.5,901.5C 2063.5,899.833 2063.5,898.167 2063.5,896.5C 2058.66,897.323 2056.33,895.323 2056.5,890.5C 2052.17,890.833 2050.17,888.833 2050.5,884.5C 2046.17,884.833 2044.17,882.833 2044.5,878.5C 2040.09,878.938 2038.43,876.938 2039.5,872.5C 2037.28,872.822 2035.44,872.155 2034,870.5C 2033.5,867.183 2033.33,863.85 2033.5,860.5C 2031.5,860.5 2029.5,860.5 2027.5,860.5C 2027.5,858.5 2027.5,856.5 2027.5,854.5C 2025.5,854.5 2023.5,854.5 2021.5,854.5C 2021.5,852.5 2021.5,850.5 2021.5,848.5C 2019.28,848.822 2017.44,848.155 2016,846.5C 2015.5,843.183 2015.33,839.85 2015.5,836.5C 2013.5,836.5 2011.5,836.5 2009.5,836.5C 2009.5,834.5 2009.5,832.5 2009.5,830.5C 2007.28,830.822 2005.44,830.155 2004,828.5C 2003.5,825.518 2003.34,822.518 2003.5,819.5C 2001.42,819.528 1999.58,818.861 1998,817.5C 1997.5,814.183 1997.33,810.85 1997.5,807.5C 1995.5,807.167 1993.5,806.833 1991.5,806.5C 1991.5,802.5 1991.5,798.5 1991.5,794.5C 1989.83,794.5 1988.17,794.5 1986.5,794.5C 1985.78,788.862 1985.45,783.196 1985.5,777.5C 1983.83,777.5 1982.17,777.5 1980.5,777.5C 1979.64,771.545 1979.3,765.545 1979.5,759.5C 1977.23,759.859 1975.4,759.192 1974,757.5C 1973.5,750.174 1973.33,742.841 1973.5,735.5C 1971.23,735.859 1969.4,735.192 1968,733.5C 1967.5,718.504 1967.33,703.504 1967.5,688.5C 1965.53,688.739 1963.7,688.406 1962,687.5C 1961.33,670.833 1961.33,654.167 1962,637.5C 1963.44,635.845 1965.28,635.178 1967.5,635.5C 1967.33,621.829 1967.5,608.163 1968,594.5C 1969.7,593.594 1971.53,593.261 1973.5,593.5C 1973.33,586.159 1973.5,578.826 1974,571.5C 1975.7,570.594 1977.53,570.261 1979.5,570.5C 1979.33,564.824 1979.5,559.157 1980,553.5C 1981.7,552.594 1983.53,552.261 1985.5,552.5C 1985.3,546.455 1985.64,540.455 1986.5,534.5C 1988.17,534.5 1989.83,534.5 1991.5,534.5C 1991.5,530.5 1991.5,526.5 1991.5,522.5C 1993.5,522.5 1995.5,522.5 1997.5,522.5C 1997.33,518.818 1997.5,515.152 1998,511.5C 1999.7,510.594 2001.53,510.261 2003.5,510.5C 2003.18,506.774 2003.51,503.107 2004.5,499.5C 2006.07,498.691 2007.74,498.357 2009.5,498.5C 2009.34,495.482 2009.5,492.482 2010,489.5C 2011.44,488.13 2013.11,487.13 2015,486.5C 2015.49,484.866 2015.66,483.199 2015.5,481.5C 2017.5,481.5 2019.5,481.5 2021.5,481.5C 2021.33,478.15 2021.5,474.817 2022,471.5C 2023.44,469.845 2025.28,469.178 2027.5,469.5C 2027.5,467.5 2027.5,465.5 2027.5,463.5C 2029.5,463.5 2031.5,463.5 2033.5,463.5C 2033.5,461.5 2033.5,459.5 2033.5,457.5C 2035.5,457.5 2037.5,457.5 2039.5,457.5C 2039.5,455.5 2039.5,453.5 2039.5,451.5C 2041.17,451.5 2042.83,451.5 2044.5,451.5C 2044.5,449.5 2044.5,447.5 2044.5,445.5C 2046.5,445.5 2048.5,445.5 2050.5,445.5C 2050.5,443.5 2050.5,441.5 2050.5,439.5C 2052.5,439.5 2054.5,439.5 2056.5,439.5C 2056.5,437.5 2056.5,435.5 2056.5,433.5C 2058.5,433.5 2060.5,433.5 2062.5,433.5C 2061.5,428.5 2063.5,426.5 2068.5,427.5C 2067.5,422.5 2069.5,420.5 2074.5,421.5C 2074.17,417.167 2076.17,415.167 2080.5,415.5C 2080.42,414.07 2080.75,412.736 2081.5,411.5C 2085.03,410.079 2088.69,409.412 2092.5,409.5C 2092.5,407.5 2092.5,405.5 2092.5,403.5C 2094.5,403.5 2096.5,403.5 2098.5,403.5C 2098.21,401.712 2098.55,400.045 2099.5,398.5C 2103.09,397.574 2106.76,397.241 2110.5,397.5C 2110.5,395.833 2110.5,394.167 2110.5,392.5C 2112.5,392.5 2114.5,392.5 2116.5,392.5C 2116.21,390.712 2116.55,389.045 2117.5,387.5C 2121.09,386.574 2124.76,386.241 2128.5,386.5C 2128.5,384.5 2128.5,382.5 2128.5,380.5C 2132.17,380.5 2135.83,380.5 2139.5,380.5C 2139.36,378.738 2139.69,377.071 2140.5,375.5C 2146.13,374.505 2151.79,374.171 2157.5,374.5C 2157.26,372.533 2157.59,370.699 2158.5,369C 2162.15,368.501 2165.82,368.335 2169.5,368.5C 2168.96,365.762 2169.96,363.928 2172.5,363C 2179.49,362.5 2186.49,362.334 2193.5,362.5C 2193.5,360.5 2193.5,358.5 2193.5,356.5C 2201.5,356.5 2209.5,356.5 2217.5,356.5C 2217.33,354.379 2217.66,352.379 2218.5,350.5 Z M 2246.5,456.5 C 2268.17,456.333 2289.84,456.5 2311.5,457C 2312.17,458.667 2312.83,460.333 2313.5,462C 2320.83,462.333 2328.17,462.667 2335.5,463C 2336.17,464.667 2336.83,466.333 2337.5,468C 2342.82,468.499 2348.16,468.666 2353.5,468.5C 2353.26,470.467 2353.59,472.301 2354.5,474C 2358.15,474.499 2361.82,474.665 2365.5,474.5C 2365.26,476.467 2365.59,478.301 2366.5,480C 2370.15,480.499 2373.82,480.665 2377.5,480.5C 2377.5,482.5 2377.5,484.5 2377.5,486.5C 2381.5,486.5 2385.5,486.5 2389.5,486.5C 2389.5,488.5 2389.5,490.5 2389.5,492.5C 2391.5,492.5 2393.5,492.5 2395.5,492.5C 2395.5,494.5 2395.5,496.5 2395.5,498.5C 2397.5,498.5 2399.5,498.5 2401.5,498.5C 2401.17,502.833 2403.17,504.833 2407.5,504.5C 2407.06,508.529 2408.89,510.529 2413,510.5C 2413.49,512.134 2413.66,513.801 2413.5,515.5C 2418.5,514.5 2420.5,516.5 2419.5,521.5C 2424.5,520.5 2426.5,522.5 2425.5,527.5C 2427.17,527.5 2428.83,527.5 2430.5,527.5C 2429.68,532.339 2431.68,534.673 2436.5,534.5C 2435.5,539.5 2437.5,541.5 2442.5,540.5C 2442.33,543.85 2442.5,547.183 2443,550.5C 2444.7,551.406 2446.53,551.739 2448.5,551.5C 2448.33,554.85 2448.5,558.183 2449,561.5C 2450.44,563.155 2452.28,563.822 2454.5,563.5C 2454.33,566.85 2454.5,570.183 2455,573.5C 2456.44,575.155 2458.28,575.822 2460.5,575.5C 2460.33,579.182 2460.5,582.848 2461,586.5C 2462.7,587.406 2464.53,587.739 2466.5,587.5C 2466.17,593.206 2466.5,598.872 2467.5,604.5C 2469.07,605.309 2470.74,605.643 2472.5,605.5C 2472.33,613.174 2472.5,620.841 2473,628.5C 2474.7,629.406 2476.53,629.739 2478.5,629.5C 2478.5,651.167 2478.5,672.833 2478.5,694.5C 2476.74,694.357 2475.07,694.691 2473.5,695.5C 2472.5,705.144 2472.17,714.81 2472.5,724.5C 2470.5,724.5 2468.5,724.5 2466.5,724.5C 2466.5,730.5 2466.5,736.5 2466.5,742.5C 2464.5,742.5 2462.5,742.5 2460.5,742.5C 2460.5,746.5 2460.5,750.5 2460.5,754.5C 2458.53,754.261 2456.7,754.594 2455,755.5C 2454.5,758.817 2454.33,762.15 2454.5,765.5C 2452.74,765.357 2451.07,765.691 2449.5,766.5C 2448.51,770.107 2448.18,773.774 2448.5,777.5C 2443.5,776.5 2441.5,778.5 2442.5,783.5C 2440.5,783.833 2438.5,784.167 2436.5,784.5C 2436.5,788.167 2436.5,791.833 2436.5,795.5C 2431.5,794.5 2429.5,796.5 2430.5,801.5C 2425.5,800.5 2423.5,802.5 2424.5,807.5C 2419.5,806.5 2417.5,808.5 2418.5,813.5C 2413.5,812.5 2411.5,814.5 2412.5,819.5C 2407.5,818.5 2405.5,820.5 2406.5,825.5C 2404.5,825.5 2402.5,825.5 2400.5,825.5C 2400.5,827.5 2400.5,829.5 2400.5,831.5C 2397.15,831.335 2393.82,831.502 2390.5,832C 2389.59,833.699 2389.26,835.533 2389.5,837.5C 2387.5,837.5 2385.5,837.5 2383.5,837.5C 2383.5,839.5 2383.5,841.5 2383.5,843.5C 2379.5,843.5 2375.5,843.5 2371.5,843.5C 2371.5,845.5 2371.5,847.5 2371.5,849.5C 2367.5,849.5 2363.5,849.5 2359.5,849.5C 2359.5,851.5 2359.5,853.5 2359.5,855.5C 2353.79,855.171 2348.13,855.505 2342.5,856.5C 2341.75,857.736 2341.42,859.07 2341.5,860.5C 2334.09,860.152 2326.76,860.652 2319.5,862C 2318.62,863.356 2318.29,864.856 2318.5,866.5C 2294.5,866.5 2270.5,866.5 2246.5,866.5C 2246.67,864.007 2245.67,862.174 2243.5,861C 2236.51,860.5 2229.51,860.334 2222.5,860.5C 2222.5,858.833 2222.5,857.167 2222.5,855.5C 2218.5,855.5 2214.5,855.5 2210.5,855.5C 2210.86,853.234 2210.19,851.401 2208.5,850C 2203.18,849.501 2197.84,849.334 2192.5,849.5C 2192.5,847.5 2192.5,845.5 2192.5,843.5C 2188.22,844.517 2185.89,842.85 2185.5,838.5C 2182.23,837.513 2178.9,837.18 2175.5,837.5C 2176.47,832.633 2174.47,830.466 2169.5,831C 2168.91,829.491 2168.24,827.991 2167.5,826.5C 2164.24,825.583 2160.91,825.249 2157.5,825.5C 2157.5,823.5 2157.5,821.5 2157.5,819.5C 2155.5,819.5 2153.5,819.5 2151.5,819.5C 2151.5,817.5 2151.5,815.5 2151.5,813.5C 2149.5,813.5 2147.5,813.5 2145.5,813.5C 2145.5,811.5 2145.5,809.5 2145.5,807.5C 2143.5,807.5 2141.5,807.5 2139.5,807.5C 2139.5,805.5 2139.5,803.5 2139.5,801.5C 2137.5,801.5 2135.5,801.5 2133.5,801.5C 2133.75,798.091 2133.42,794.758 2132.5,791.5C 2131.01,790.756 2129.51,790.09 2128,789.5C 2128.2,784.886 2126.03,782.886 2121.5,783.5C 2121.5,781.5 2121.5,779.5 2121.5,777.5C 2119.5,777.5 2117.5,777.5 2115.5,777.5C 2115.67,773.818 2115.5,770.152 2115,766.5C 2113.3,765.594 2111.47,765.261 2109.5,765.5C 2109.5,761.833 2109.5,758.167 2109.5,754.5C 2107.5,754.5 2105.5,754.5 2103.5,754.5C 2103.5,750.5 2103.5,746.5 2103.5,742.5C 2101.83,742.5 2100.17,742.5 2098.5,742.5C 2098.67,736.824 2098.5,731.157 2098,725.5C 2096.3,724.594 2094.47,724.261 2092.5,724.5C 2092.67,716.493 2092.5,708.493 2092,700.5C 2092.21,696.541 2090.38,694.874 2086.5,695.5C 2086.5,673.167 2086.5,650.833 2086.5,628.5C 2090.38,629.126 2092.21,627.459 2092,623.5C 2092.5,615.507 2092.67,607.507 2092.5,599.5C 2094.77,599.859 2096.6,599.192 2098,597.5C 2098.5,592.177 2098.67,586.844 2098.5,581.5C 2100.17,581.5 2101.83,581.5 2103.5,581.5C 2103.5,577.5 2103.5,573.5 2103.5,569.5C 2105.47,569.739 2107.3,569.406 2109,568.5C 2109.5,564.848 2109.67,561.182 2109.5,557.5C 2111.5,557.5 2113.5,557.5 2115.5,557.5C 2115.5,553.5 2115.5,549.5 2115.5,545.5C 2117.5,545.5 2119.5,545.5 2121.5,545.5C 2121.5,543.833 2121.5,542.167 2121.5,540.5C 2123.72,540.822 2125.56,540.155 2127,538.5C 2127.5,535.183 2127.67,531.85 2127.5,528.5C 2129.5,528.5 2131.5,528.5 2133.5,528.5C 2133.5,526.5 2133.5,524.5 2133.5,522.5C 2138.5,523.5 2140.5,521.5 2139.5,516.5C 2144.5,517.5 2146.5,515.5 2145.5,510.5C 2150.5,511.5 2152.5,509.5 2151.5,504.5C 2153.5,504.5 2155.5,504.5 2157.5,504.5C 2157.5,502.5 2157.5,500.5 2157.5,498.5C 2160.91,498.751 2164.24,498.417 2167.5,497.5C 2168.45,495.955 2168.79,494.288 2168.5,492.5C 2173.49,493.418 2175.83,491.418 2175.5,486.5C 2178.52,486.665 2181.52,486.498 2184.5,486C 2185.87,484.559 2186.87,482.892 2187.5,481C 2189.13,480.506 2190.8,480.34 2192.5,480.5C 2192.5,478.5 2192.5,476.5 2192.5,474.5C 2196.5,474.5 2200.5,474.5 2204.5,474.5C 2204.5,472.5 2204.5,470.5 2204.5,468.5C 2210.5,468.5 2216.5,468.5 2222.5,468.5C 2222.5,466.5 2222.5,464.5 2222.5,462.5C 2230.17,462.666 2237.84,462.5 2245.5,462C 2246.41,460.301 2246.74,458.467 2246.5,456.5 Z"/></g>
<g><path style="opacity:0.922" fill="#fefffe" d="M 1499.5,356.5 C 1536.83,356.5 1574.17,356.5 1611.5,356.5C 1611.5,524.5 1611.5,692.5 1611.5,860.5C 1716.17,860.5 1820.83,860.5 1925.5,860.5C 1925.5,896.167 1925.5,931.833 1925.5,967.5C 1783.5,967.5 1641.5,967.5 1499.5,967.5C 1499.5,763.833 1499.5,560.167 1499.5,356.5 Z"/></g>
<g><path style="opacity:0.909" fill="#fefffe" d="M 2716.5,356.5 C 2751.5,356.5 2786.5,356.5 2821.5,356.5C 2821.5,358.5 2821.5,360.5 2821.5,362.5C 2823.5,362.5 2825.5,362.5 2827.5,362.5C 2827.5,364.5 2827.5,366.5 2827.5,368.5C 2829.5,368.5 2831.5,368.5 2833.5,368.5C 2833.5,370.5 2833.5,372.5 2833.5,374.5C 2835.72,374.178 2837.56,374.845 2839,376.5C 2839.5,379.817 2839.67,383.15 2839.5,386.5C 2841.5,386.5 2843.5,386.5 2845.5,386.5C 2845.5,388.5 2845.5,390.5 2845.5,392.5C 2847.5,392.5 2849.5,392.5 2851.5,392.5C 2851.5,394.167 2851.5,395.833 2851.5,397.5C 2856.42,397.172 2858.42,399.505 2857.5,404.5C 2859.29,404.215 2860.95,404.548 2862.5,405.5C 2863.42,408.758 2863.75,412.091 2863.5,415.5C 2868.5,414.5 2870.5,416.5 2869.5,421.5C 2873.83,421.167 2875.83,423.167 2875.5,427.5C 2876.93,427.421 2878.26,427.754 2879.5,428.5C 2880.92,432.027 2881.59,435.694 2881.5,439.5C 2883.5,439.5 2885.5,439.5 2887.5,439.5C 2887.5,441.5 2887.5,443.5 2887.5,445.5C 2892.5,444.5 2894.5,446.5 2893.5,451.5C 2895.17,451.5 2896.83,451.5 2898.5,451.5C 2898.5,453.5 2898.5,455.5 2898.5,457.5C 2900.72,457.178 2902.56,457.845 2904,459.5C 2904.5,462.817 2904.67,466.15 2904.5,469.5C 2906.5,469.5 2908.5,469.5 2910.5,469.5C 2910.5,471.5 2910.5,473.5 2910.5,475.5C 2912.5,475.5 2914.5,475.5 2916.5,475.5C 2916.5,477.5 2916.5,479.5 2916.5,481.5C 2918.72,481.178 2920.56,481.845 2922,483.5C 2922.5,486.482 2922.66,489.482 2922.5,492.5C 2924.5,492.5 2926.5,492.5 2928.5,492.5C 2928.5,494.5 2928.5,496.5 2928.5,498.5C 2933.5,497.5 2935.5,499.5 2934.5,504.5C 2936.5,504.833 2938.5,505.167 2940.5,505.5C 2940.5,507.5 2940.5,509.5 2940.5,511.5C 2942.29,511.215 2943.95,511.548 2945.5,512.5C 2946.42,515.758 2946.75,519.091 2946.5,522.5C 2948.5,522.5 2950.5,522.5 2952.5,522.5C 2952.5,524.5 2952.5,526.5 2952.5,528.5C 2957.16,527.832 2959.16,529.832 2958.5,534.5C 2959.93,534.421 2961.26,534.754 2962.5,535.5C 2963.92,539.027 2964.59,542.694 2964.5,546.5C 2966.5,546.5 2968.5,546.5 2970.5,546.5C 2970.5,548.5 2970.5,550.5 2970.5,552.5C 2975.5,551.5 2977.5,553.5 2976.5,558.5C 2978.29,558.215 2979.95,558.548 2981.5,559.5C 2982.43,563.094 2982.76,566.76 2982.5,570.5C 2984.17,570.5 2985.83,570.5 2987.5,570.5C 2987.5,572.5 2987.5,574.5 2987.5,576.5C 2989.5,576.5 2991.5,576.5 2993.5,576.5C 2993.5,578.167 2993.5,579.833 2993.5,581.5C 2998.03,580.886 3000.2,582.886 3000,587.5C 3001.44,588.26 3002.94,588.926 3004.5,589.5C 3005.49,592.768 3005.82,596.102 3005.5,599.5C 3010.5,598.5 3012.5,600.5 3011.5,605.5C 3016.37,604.533 3018.53,606.533 3018,611.5C 3019.51,612.09 3021.01,612.756 3022.5,613.5C 3023.42,616.758 3023.75,620.091 3023.5,623.5C 3025.5,623.5 3027.5,623.5 3029.5,623.5C 3029.5,625.5 3029.5,627.5 3029.5,629.5C 3031.5,629.5 3033.5,629.5 3035.5,629.5C 3035.5,631.5 3035.5,633.5 3035.5,635.5C 3040.5,634.5 3042.5,636.5 3041.5,641.5C 3042.93,641.421 3044.26,641.754 3045.5,642.5C 3047.09,645.985 3047.76,649.652 3047.5,653.5C 3049.5,653.5 3051.5,653.5 3053.5,653.5C 3053.5,655.5 3053.5,657.5 3053.5,659.5C 3058.5,658.5 3060.5,660.5 3059.5,665.5C 3061.14,665.286 3062.64,665.62 3064,666.5C 3065.04,669.757 3065.54,673.09 3065.5,676.5C 3070.5,675.5 3072.5,677.5 3071.5,682.5C 3075.91,682.062 3077.57,684.062 3076.5,688.5C 3081.37,687.533 3083.53,689.533 3083,694.5C 3084.67,695.167 3086.33,695.833 3088,696.5C 3088.5,699.817 3088.67,703.15 3088.5,706.5C 3090.5,706.5 3092.5,706.5 3094.5,706.5C 3094.5,708.5 3094.5,710.5 3094.5,712.5C 3099.5,711.5 3101.5,713.5 3100.5,718.5C 3102.14,718.286 3103.64,718.62 3105,719.5C 3106.34,723.026 3106.84,726.692 3106.5,730.5C 3108.5,730.5 3110.5,730.5 3112.5,730.5C 3112.5,732.5 3112.5,734.5 3112.5,736.5C 3114.5,736.5 3116.5,736.5 3118.5,736.5C 3118.5,738.5 3118.5,740.5 3118.5,742.5C 3123.5,741.5 3125.5,743.5 3124.5,748.5C 3128.38,747.874 3130.21,749.541 3130,753.5C 3130.33,621.833 3130.67,490.167 3131,358.5C 3149.45,357.173 3168.12,356.506 3187,356.5C 3205.74,356.503 3224.41,356.836 3243,357.5C 3243.5,560.833 3243.67,764.166 3243.5,967.5C 3210.83,967.667 3178.16,967.5 3145.5,967C 3144.33,966.5 3143.5,965.667 3143,964.5C 3142.5,961.518 3142.34,958.518 3142.5,955.5C 3140.5,955.5 3138.5,955.5 3136.5,955.5C 3136.5,953.5 3136.5,951.5 3136.5,949.5C 3131.5,950.5 3129.5,948.5 3130.5,943.5C 3128.71,943.785 3127.05,943.452 3125.5,942.5C 3124.57,938.906 3124.24,935.24 3124.5,931.5C 3122.5,931.5 3120.5,931.5 3118.5,931.5C 3118.5,929.5 3118.5,927.5 3118.5,925.5C 3116.5,925.5 3114.5,925.5 3112.5,925.5C 3112.5,923.5 3112.5,921.5 3112.5,919.5C 3110.83,919.5 3109.17,919.5 3107.5,919.5C 3107.5,917.5 3107.5,915.5 3107.5,913.5C 3105.53,913.739 3103.7,913.406 3102,912.5C 3101.5,909.183 3101.33,905.85 3101.5,902.5C 3099.5,902.5 3097.5,902.5 3095.5,902.5C 3095.5,900.5 3095.5,898.5 3095.5,896.5C 3090.63,897.467 3088.47,895.467 3089,890.5C 3087.49,889.91 3085.99,889.244 3084.5,888.5C 3083.58,885.242 3083.25,881.909 3083.5,878.5C 3081.5,878.5 3079.5,878.5 3077.5,878.5C 3077.5,876.5 3077.5,874.5 3077.5,872.5C 3075.5,872.5 3073.5,872.5 3071.5,872.5C 3071.5,870.5 3071.5,868.5 3071.5,866.5C 3066.5,867.5 3064.5,865.5 3065.5,860.5C 3063.52,860.617 3061.85,859.95 3060.5,858.5C 3059.58,855.242 3059.25,851.909 3059.5,848.5C 3057.5,848.5 3055.5,848.5 3053.5,848.5C 3053.5,846.5 3053.5,844.5 3053.5,842.5C 3048.84,843.168 3046.84,841.168 3047.5,836.5C 3045.86,836.714 3044.36,836.38 3043,835.5C 3041.89,831.914 3041.39,828.247 3041.5,824.5C 3039.5,824.5 3037.5,824.5 3035.5,824.5C 3035.5,822.833 3035.5,821.167 3035.5,819.5C 3030.84,820.168 3028.84,818.168 3029.5,813.5C 3024.68,813.673 3022.68,811.339 3023.5,806.5C 3021.86,806.714 3020.36,806.38 3019,805.5C 3018.5,802.183 3018.33,798.85 3018.5,795.5C 3016.5,795.5 3014.5,795.5 3012.5,795.5C 3012.5,793.5 3012.5,791.5 3012.5,789.5C 3007.5,790.5 3005.5,788.5 3006.5,783.5C 3004.28,783.822 3002.44,783.155 3001,781.5C 3000.5,778.183 3000.33,774.85 3000.5,771.5C 2998.5,771.5 2996.5,771.5 2994.5,771.5C 2994.5,769.5 2994.5,767.5 2994.5,765.5C 2992.5,765.5 2990.5,765.5 2988.5,765.5C 2988.5,763.5 2988.5,761.5 2988.5,759.5C 2983.5,760.5 2981.5,758.5 2982.5,753.5C 2980.42,753.528 2978.58,752.861 2977,751.5C 2976.5,748.183 2976.33,744.85 2976.5,741.5C 2974.5,741.5 2972.5,741.5 2970.5,741.5C 2970.5,739.5 2970.5,737.5 2970.5,735.5C 2968.5,735.5 2966.5,735.5 2964.5,735.5C 2964.5,733.5 2964.5,731.5 2964.5,729.5C 2962.86,729.714 2961.36,729.38 2960,728.5C 2958.96,725.243 2958.46,721.91 2958.5,718.5C 2953.5,719.5 2951.5,717.5 2952.5,712.5C 2947.5,713.5 2945.5,711.5 2946.5,706.5C 2944.52,706.617 2942.85,705.95 2941.5,704.5C 2940.58,701.242 2940.25,697.909 2940.5,694.5C 2935.5,695.5 2933.5,693.5 2934.5,688.5C 2932.83,688.5 2931.17,688.5 2929.5,688.5C 2929.5,686.5 2929.5,684.5 2929.5,682.5C 2927.5,682.5 2925.5,682.5 2923.5,682.5C 2923.5,680.5 2923.5,678.5 2923.5,676.5C 2921.28,676.822 2919.44,676.155 2918,674.5C 2917.5,671.183 2917.33,667.85 2917.5,664.5C 2915.5,664.5 2913.5,664.5 2911.5,664.5C 2911.5,662.5 2911.5,660.5 2911.5,658.5C 2909.5,658.5 2907.5,658.5 2905.5,658.5C 2905.5,656.5 2905.5,654.5 2905.5,652.5C 2903.28,652.822 2901.44,652.155 2900,650.5C 2899.5,647.183 2899.33,643.85 2899.5,640.5C 2897.5,640.5 2895.5,640.5 2893.5,640.5C 2893.5,638.833 2893.5,637.167 2893.5,635.5C 2888.5,636.5 2886.5,634.5 2887.5,629.5C 2882.58,629.828 2880.58,627.495 2881.5,622.5C 2879.71,622.785 2878.05,622.452 2876.5,621.5C 2875.58,618.242 2875.25,614.909 2875.5,611.5C 2870.5,612.5 2868.5,610.5 2869.5,605.5C 2865.17,605.833 2863.17,603.833 2863.5,599.5C 2862.07,599.579 2860.74,599.246 2859.5,598.5C 2858.08,594.973 2857.41,591.306 2857.5,587.5C 2855.5,587.5 2853.5,587.5 2851.5,587.5C 2851.5,585.5 2851.5,583.5 2851.5,581.5C 2846.5,582.5 2844.5,580.5 2845.5,575.5C 2843.83,575.5 2842.17,575.5 2840.5,575.5C 2840.5,573.5 2840.5,571.5 2840.5,569.5C 2838.28,569.822 2836.44,569.155 2835,567.5C 2834.5,564.183 2834.33,560.85 2834.5,557.5C 2832.5,557.5 2830.5,557.5 2828.5,557.5C 2827.5,690.152 2827.17,826.818 2827.5,967.5C 2790.17,967.5 2752.83,967.5 2715.5,967.5C 2715.17,763.764 2715.5,560.097 2716.5,356.5 Z"/></g>
<g><path style="opacity:0.889" fill="#fefffe" d="M 3599.5,356.5 C 3636.5,356.333 3673.5,356.5 3710.5,357C 3711.46,360.73 3711.79,364.563 3711.5,368.5C 3713.72,368.178 3715.56,368.845 3717,370.5C 3717.5,375.823 3717.67,381.156 3717.5,386.5C 3719.5,386.5 3721.5,386.5 3723.5,386.5C 3723.5,390.167 3723.5,393.833 3723.5,397.5C 3725.26,397.357 3726.93,397.691 3728.5,398.5C 3729.49,402.445 3729.82,406.445 3729.5,410.5C 3731.77,410.141 3733.6,410.808 3735,412.5C 3735.5,417.489 3735.67,422.489 3735.5,427.5C 3737.5,427.5 3739.5,427.5 3741.5,427.5C 3741.5,431.5 3741.5,435.5 3741.5,439.5C 3743.5,439.5 3745.5,439.5 3747.5,439.5C 3747.5,443.5 3747.5,447.5 3747.5,451.5C 3749.29,451.215 3750.95,451.548 3752.5,452.5C 3753.43,456.094 3753.76,459.76 3753.5,463.5C 3755.14,463.286 3756.64,463.62 3758,464.5C 3759.29,470.088 3759.79,475.755 3759.5,481.5C 3761.47,481.261 3763.3,481.594 3765,482.5C 3765.5,485.817 3765.67,489.15 3765.5,492.5C 3767.72,492.178 3769.56,492.845 3771,494.5C 3771.5,498.152 3771.67,501.818 3771.5,505.5C 3773.14,505.286 3774.64,505.62 3776,506.5C 3777.27,511.754 3777.77,517.087 3777.5,522.5C 3779.17,522.5 3780.83,522.5 3782.5,522.5C 3782.5,526.5 3782.5,530.5 3782.5,534.5C 3784.5,534.5 3786.5,534.5 3788.5,534.5C 3788.5,538.5 3788.5,542.5 3788.5,546.5C 3790.47,546.261 3792.3,546.594 3794,547.5C 3794.5,551.152 3794.67,554.818 3794.5,558.5C 3796.72,558.178 3798.56,558.845 3800,560.5C 3800.5,565.823 3800.67,571.156 3800.5,576.5C 3802.5,576.5 3804.5,576.5 3806.5,576.5C 3806.5,580.167 3806.5,583.833 3806.5,587.5C 3808.72,587.178 3810.56,587.845 3812,589.5C 3812.33,592.833 3812.67,596.167 3813,599.5C 3815,599.996 3816.66,600.996 3818,602.5C 3818.5,607.489 3818.67,612.489 3818.5,617.5C 3820.5,617.5 3822.5,617.5 3824.5,617.5C 3824.5,621.5 3824.5,625.5 3824.5,629.5C 3826.5,629.5 3828.5,629.5 3830.5,629.5C 3830.5,633.5 3830.5,637.5 3830.5,641.5C 3832.47,641.261 3834.3,641.594 3836,642.5C 3836.5,646.152 3836.67,649.818 3836.5,653.5C 3838.14,653.286 3839.64,653.62 3841,654.5C 3842.27,659.754 3842.77,665.087 3842.5,670.5C 3844.29,670.215 3845.95,670.548 3847.5,671.5C 3848.43,675.094 3848.76,678.76 3848.5,682.5C 3850.99,682.329 3852.83,683.329 3854,685.5C 3854.5,688.817 3854.67,692.15 3854.5,695.5C 3856.17,695.5 3857.83,695.5 3859.5,695.5C 3860.22,701.138 3860.55,706.804 3860.5,712.5C 3862.47,712.261 3864.3,712.594 3866,713.5C 3866.5,717.152 3866.67,720.818 3866.5,724.5C 3868.17,724.5 3869.83,724.5 3871.5,724.5C 3871.5,728.5 3871.5,732.5 3871.5,736.5C 3873.47,736.261 3875.3,736.594 3877,737.5C 3877.5,741.152 3877.67,744.818 3877.5,748.5C 3879.77,748.141 3881.6,748.808 3883,750.5C 3883.5,755.489 3883.67,760.489 3883.5,765.5C 3885.47,765.261 3887.3,765.594 3889,766.5C 3889.5,770.152 3889.67,773.818 3889.5,777.5C 3891.26,777.357 3892.93,777.691 3894.5,778.5C 3895.33,782.122 3895.83,785.789 3896,789.5C 3898,789.996 3899.66,790.996 3901,792.5C 3901.5,797.489 3901.67,802.489 3901.5,807.5C 3903.5,807.5 3905.5,807.5 3907.5,807.5C 3907.5,811.5 3907.5,815.5 3907.5,819.5C 3909.5,819.5 3911.5,819.5 3913.5,819.5C 3913.5,823.5 3913.5,827.5 3913.5,831.5C 3915.47,831.261 3917.3,831.594 3919,832.5C 3919.5,838.157 3919.67,843.824 3919.5,849.5C 3921.5,849.5 3923.5,849.5 3925.5,849.5C 3925.5,853.167 3925.5,856.833 3925.5,860.5C 3927.29,860.215 3928.95,860.548 3930.5,861.5C 3931.43,865.094 3931.76,868.76 3931.5,872.5C 3933.99,872.329 3935.83,873.329 3937,875.5C 3937.5,878.817 3937.67,882.15 3937.5,885.5C 3939.17,885.5 3940.83,885.5 3942.5,885.5C 3943.22,891.138 3943.55,896.804 3943.5,902.5C 3945.47,902.261 3947.3,902.594 3949,903.5C 3949.5,907.152 3949.67,910.818 3949.5,914.5C 3951.29,914.215 3952.95,914.548 3954.5,915.5C 3955.43,919.094 3955.76,922.76 3955.5,926.5C 3957.17,926.5 3958.83,926.5 3960.5,926.5C 3960.5,932.5 3960.5,938.5 3960.5,944.5C 3962.5,944.5 3964.5,944.5 3966.5,944.5C 3966.5,948.167 3966.5,951.833 3966.5,955.5C 3967.5,955.5 3968.5,955.5 3969.5,955.5C 3970.65,959.186 3970.65,962.853 3969.5,966.5C 3929.5,967.667 3889.5,967.833 3849.5,967C 3848.59,965.301 3848.26,963.467 3848.5,961.5C 3846.71,961.785 3845.05,961.452 3843.5,960.5C 3842.57,956.906 3842.24,953.24 3842.5,949.5C 3840.03,949.767 3838.36,948.767 3837.5,946.5C 3836.61,941.544 3836.27,936.544 3836.5,931.5C 3834.53,931.739 3832.7,931.406 3831,930.5C 3830.5,926.848 3830.33,923.182 3830.5,919.5C 3828.71,919.785 3827.05,919.452 3825.5,918.5C 3824.57,914.906 3824.24,911.24 3824.5,907.5C 3822.86,907.714 3821.36,907.38 3820,906.5C 3818.73,901.246 3818.23,895.913 3818.5,890.5C 3816.86,890.714 3815.36,890.38 3814,889.5C 3813.5,885.848 3813.33,882.182 3813.5,878.5C 3811.28,878.822 3809.44,878.155 3808,876.5C 3807.5,871.177 3807.33,865.844 3807.5,860.5C 3805.5,860.5 3803.5,860.5 3801.5,860.5C 3801.5,856.5 3801.5,852.5 3801.5,848.5C 3799.53,848.739 3797.7,848.406 3796,847.5C 3795.5,843.848 3795.33,840.182 3795.5,836.5C 3793.28,836.822 3791.44,836.155 3790,834.5C 3789.5,831.183 3789.33,827.85 3789.5,824.5C 3698.5,824.5 3607.5,824.5 3516.5,824.5C 3517.5,829.5 3515.5,831.5 3510.5,830.5C 3510.5,834.5 3510.5,838.5 3510.5,842.5C 3508.5,842.5 3506.5,842.5 3504.5,842.5C 3504.7,848.545 3504.36,854.545 3503.5,860.5C 3501.83,860.5 3500.17,860.5 3498.5,860.5C 3498.67,864.182 3498.5,867.848 3498,871.5C 3496.3,872.406 3494.47,872.739 3492.5,872.5C 3492.67,876.182 3492.5,879.848 3492,883.5C 3490.3,884.406 3488.47,884.739 3486.5,884.5C 3486.67,889.511 3486.5,894.511 3486,899.5C 3484.83,901.671 3482.99,902.671 3480.5,902.5C 3480.5,906.167 3480.5,909.833 3480.5,913.5C 3478.5,913.5 3476.5,913.5 3474.5,913.5C 3474.67,918.844 3474.5,924.177 3474,929.5C 3472.56,931.155 3470.72,931.822 3468.5,931.5C 3468.67,935.182 3468.5,938.848 3468,942.5C 3466.3,943.406 3464.47,943.739 3462.5,943.5C 3462.5,947.5 3462.5,951.5 3462.5,955.5C 3460.5,955.5 3458.5,955.5 3456.5,955.5C 3456.5,959.5 3456.5,963.5 3456.5,967.5C 3417.17,967.5 3377.83,967.5 3338.5,967.5C 3338.33,960.159 3338.5,952.826 3339,945.5C 3340.7,944.594 3342.53,944.261 3344.5,944.5C 3344.5,940.5 3344.5,936.5 3344.5,932.5C 3346.5,932.5 3348.5,932.5 3350.5,932.5C 3350.33,927.156 3350.5,921.823 3351,916.5C 3352.44,914.845 3354.28,914.178 3356.5,914.5C 3356.33,910.818 3356.5,907.152 3357,903.5C 3358.7,902.594 3360.53,902.261 3362.5,902.5C 3362.5,898.5 3362.5,894.5 3362.5,890.5C 3364.5,890.5 3366.5,890.5 3368.5,890.5C 3368.5,886.5 3368.5,882.5 3368.5,878.5C 3370.17,878.5 3371.83,878.5 3373.5,878.5C 3373.23,873.087 3373.73,867.754 3375,862.5C 3376.36,861.62 3377.86,861.286 3379.5,861.5C 3379.33,858.15 3379.5,854.817 3380,851.5C 3381.4,849.808 3383.23,849.141 3385.5,849.5C 3385.33,845.818 3385.5,842.152 3386,838.5C 3387.7,837.594 3389.53,837.261 3391.5,837.5C 3391.05,831.666 3391.72,825.999 3393.5,820.5C 3394.74,819.754 3396.07,819.421 3397.5,819.5C 3397.39,815.452 3397.73,811.452 3398.5,807.5C 3400.17,807.5 3401.83,807.5 3403.5,807.5C 3403.33,803.818 3403.5,800.152 3404,796.5C 3405.7,795.594 3407.53,795.261 3409.5,795.5C 3409.33,791.818 3409.5,788.152 3410,784.5C 3411.7,783.594 3413.53,783.261 3415.5,783.5C 3415.33,778.489 3415.5,773.489 3416,768.5C 3417.44,766.845 3419.28,766.178 3421.5,766.5C 3421.33,762.818 3421.5,759.152 3422,755.5C 3423.7,754.594 3425.53,754.261 3427.5,754.5C 3427.5,750.5 3427.5,746.5 3427.5,742.5C 3429.5,742.5 3431.5,742.5 3433.5,742.5C 3433.33,737.489 3433.5,732.489 3434,727.5C 3434.93,724.965 3436.76,723.965 3439.5,724.5C 3439.33,720.818 3439.5,717.152 3440,713.5C 3441.7,712.594 3443.53,712.261 3445.5,712.5C 3445.33,708.818 3445.5,705.152 3446,701.5C 3447.7,700.594 3449.53,700.261 3451.5,700.5C 3451.5,696.5 3451.5,692.5 3451.5,688.5C 3453.5,688.5 3455.5,688.5 3457.5,688.5C 3457.33,683.156 3457.5,677.823 3458,672.5C 3459.36,671.62 3460.86,671.286 3462.5,671.5C 3462.33,667.818 3462.5,664.152 3463,660.5C 3464.7,659.594 3466.53,659.261 3468.5,659.5C 3468.33,655.818 3468.5,652.152 3469,648.5C 3470.7,647.594 3472.53,647.261 3474.5,647.5C 3474.12,641.69 3474.79,636.023 3476.5,630.5C 3477.74,629.754 3479.07,629.421 3480.5,629.5C 3480.39,625.452 3480.73,621.452 3481.5,617.5C 3483.17,617.5 3484.83,617.5 3486.5,617.5C 3486.33,613.818 3486.5,610.152 3487,606.5C 3488.7,605.594 3490.53,605.261 3492.5,605.5C 3492.33,601.818 3492.5,598.152 3493,594.5C 3494.7,593.594 3496.53,593.261 3498.5,593.5C 3498.33,588.489 3498.5,583.489 3499,578.5C 3500.44,576.845 3502.28,576.178 3504.5,576.5C 3504.5,572.5 3504.5,568.5 3504.5,564.5C 3506.5,564.5 3508.5,564.5 3510.5,564.5C 3510.5,560.5 3510.5,556.5 3510.5,552.5C 3512.5,552.5 3514.5,552.5 3516.5,552.5C 3516.33,547.489 3516.5,542.489 3517,537.5C 3517.93,534.965 3519.76,533.965 3522.5,534.5C 3522.33,530.818 3522.5,527.152 3523,523.5C 3524.7,522.594 3526.53,522.261 3528.5,522.5C 3528.33,518.818 3528.5,515.152 3529,511.5C 3530.7,510.594 3532.53,510.261 3534.5,510.5C 3534.5,506.5 3534.5,502.5 3534.5,498.5C 3536.5,498.5 3538.5,498.5 3540.5,498.5C 3540.5,492.833 3540.5,487.167 3540.5,481.5C 3542.5,481.5 3544.5,481.5 3546.5,481.5C 3546.5,477.5 3546.5,473.5 3546.5,469.5C 3548.17,469.5 3549.83,469.5 3551.5,469.5C 3551.33,465.818 3551.5,462.152 3552,458.5C 3553.7,457.594 3555.53,457.261 3557.5,457.5C 3557.23,452.087 3557.73,446.754 3559,441.5C 3560.11,439.963 3561.61,439.297 3563.5,439.5C 3563.39,435.452 3563.73,431.452 3564.5,427.5C 3566.17,427.5 3567.83,427.5 3569.5,427.5C 3569.33,423.818 3569.5,420.152 3570,416.5C 3571.7,415.594 3573.53,415.261 3575.5,415.5C 3575.33,411.818 3575.5,408.152 3576,404.5C 3577.7,403.594 3579.53,403.261 3581.5,403.5C 3581.33,398.489 3581.5,393.489 3582,388.5C 3583.4,386.808 3585.23,386.141 3587.5,386.5C 3587.5,382.5 3587.5,378.5 3587.5,374.5C 3589.5,374.5 3591.5,374.5 3593.5,374.5C 3593.5,370.5 3593.5,366.5 3593.5,362.5C 3595.5,362.5 3597.5,362.5 3599.5,362.5C 3599.5,360.5 3599.5,358.5 3599.5,356.5 Z M 3649.5,509.5 C 3653.07,509.759 3654.4,511.759 3653.5,515.5C 3655.17,515.5 3656.83,515.5 3658.5,515.5C 3658.33,518.85 3658.5,522.183 3659,525.5C 3660.17,527.671 3662.01,528.671 3664.5,528.5C 3664.33,531.85 3664.5,535.183 3665,538.5C 3666.4,540.192 3668.23,540.859 3670.5,540.5C 3670.23,545.913 3670.73,551.246 3672,556.5C 3673.36,557.38 3674.86,557.714 3676.5,557.5C 3676.33,561.182 3676.5,564.848 3677,568.5C 3678.7,569.406 3680.53,569.739 3682.5,569.5C 3682.5,573.5 3682.5,577.5 3682.5,581.5C 3684.5,581.5 3686.5,581.5 3688.5,581.5C 3688.33,586.511 3688.5,591.511 3689,596.5C 3690.17,598.671 3692.01,599.671 3694.5,599.5C 3694.18,603.226 3694.51,606.893 3695.5,610.5C 3697.07,611.309 3698.74,611.643 3700.5,611.5C 3700.33,615.182 3700.5,618.848 3701,622.5C 3702.7,623.406 3704.53,623.739 3706.5,623.5C 3706.5,627.5 3706.5,631.5 3706.5,635.5C 3708.5,635.5 3710.5,635.5 3712.5,635.5C 3712.5,641.167 3712.5,646.833 3712.5,652.5C 3714.5,652.5 3716.5,652.5 3718.5,652.5C 3718.5,656.5 3718.5,660.5 3718.5,664.5C 3720.5,664.5 3722.5,664.5 3724.5,664.5C 3724.5,668.5 3724.5,672.5 3724.5,676.5C 3726.17,676.5 3727.83,676.5 3729.5,676.5C 3729.23,681.913 3729.73,687.246 3731,692.5C 3732.36,693.38 3733.86,693.714 3735.5,693.5C 3735.33,697.182 3735.5,700.848 3736,704.5C 3737.44,706.155 3739.28,706.822 3741.5,706.5C 3741.21,710.437 3741.54,714.27 3742.5,718C 3681.83,718.667 3621.17,718.667 3560.5,718C 3561.42,717.626 3562.25,717.126 3563,716.5C 3563.5,712.848 3563.67,709.182 3563.5,705.5C 3565.77,705.859 3567.6,705.192 3569,703.5C 3569.5,698.511 3569.67,693.511 3569.5,688.5C 3571.47,688.739 3573.3,688.406 3575,687.5C 3575.5,683.848 3575.67,680.182 3575.5,676.5C 3577.17,676.5 3578.83,676.5 3580.5,676.5C 3581.27,672.548 3581.61,668.548 3581.5,664.5C 3583.97,664.767 3585.64,663.767 3586.5,661.5C 3587.39,656.544 3587.73,651.544 3587.5,646.5C 3589.47,646.739 3591.3,646.406 3593,645.5C 3593.5,642.183 3593.67,638.85 3593.5,635.5C 3595.99,635.671 3597.83,634.671 3599,632.5C 3599.5,629.183 3599.67,625.85 3599.5,622.5C 3601.14,622.714 3602.64,622.38 3604,621.5C 3605.27,616.246 3605.77,610.913 3605.5,605.5C 3607.14,605.714 3608.64,605.38 3610,604.5C 3610.5,600.848 3610.67,597.182 3610.5,593.5C 3612.47,593.739 3614.3,593.406 3616,592.5C 3616.5,588.848 3616.67,585.182 3616.5,581.5C 3618.72,581.822 3620.56,581.155 3622,579.5C 3622.5,574.177 3622.67,568.844 3622.5,563.5C 3624.5,563.5 3626.5,563.5 3628.5,563.5C 3628.5,559.5 3628.5,555.5 3628.5,551.5C 3630.47,551.739 3632.3,551.406 3634,550.5C 3634.33,547.167 3634.67,543.833 3635,540.5C 3636.89,539.87 3638.56,538.87 3640,537.5C 3640.5,532.511 3640.67,527.511 3640.5,522.5C 3642.47,522.739 3644.3,522.406 3646,521.5C 3646.5,517.848 3646.67,514.182 3646.5,510.5C 3647.79,510.737 3648.79,510.404 3649.5,509.5 Z"/></g>
<g><path style="opacity:0.903" fill="#fefffe" d="M 1499.5,1110.5 C 2318.17,1110.5 3136.83,1110.5 3955.5,1110.5C 3955.83,1143.74 3955.5,1176.91 3954.5,1210C 3136.17,1210.5 2317.83,1210.67 1499.5,1210.5C 1499.5,1177.17 1499.5,1143.83 1499.5,1110.5 Z"/></g>
<g><path style="opacity:0.945" fill="#fefffe" d="M 1427.5,1417.5 C 1451.93,1414.92 1474.93,1419.42 1496.5,1431C 1499,1432.67 1501.33,1434.51 1503.5,1436.5C 1500.23,1442.73 1496.23,1448.4 1491.5,1453.5C 1471.47,1438.86 1449.14,1433.69 1424.5,1438C 1404.75,1441.72 1397.25,1453.22 1402,1472.5C 1407.71,1479.11 1414.87,1483.27 1423.5,1485C 1443.73,1489.11 1463.73,1494.11 1483.5,1500C 1510.89,1511.62 1518.72,1531.12 1507,1558.5C 1499.16,1569.51 1488.66,1576.67 1475.5,1580C 1439.53,1587.92 1405.53,1582.92 1373.5,1565C 1371.19,1563.69 1369.19,1562.02 1367.5,1560C 1370.64,1553.54 1374.64,1547.71 1379.5,1542.5C 1407.07,1562.51 1437.41,1568.35 1470.5,1560C 1483.77,1554.63 1488.27,1545.13 1484,1531.5C 1481.5,1527.67 1478.33,1524.5 1474.5,1522C 1468.74,1519.08 1462.74,1516.75 1456.5,1515C 1436.15,1510.91 1416.15,1505.58 1396.5,1499C 1375.76,1488.32 1369.26,1471.82 1377,1449.5C 1382.23,1437.27 1391.06,1428.77 1403.5,1424C 1411.45,1421.18 1419.45,1419.01 1427.5,1417.5 Z"/></g>
<g><path style="opacity:0.973" fill="#fefffe" d="M 348.5,1418.5 C 399.833,1418.5 451.167,1418.5 502.5,1418.5C 502.5,1424.83 502.5,1431.17 502.5,1437.5C 480.833,1437.5 459.167,1437.5 437.5,1437.5C 437.5,1485.83 437.5,1534.17 437.5,1582.5C 429.5,1582.5 421.5,1582.5 413.5,1582.5C 413.5,1534.17 413.5,1485.83 413.5,1437.5C 391.833,1437.5 370.167,1437.5 348.5,1437.5C 348.5,1431.17 348.5,1424.83 348.5,1418.5 Z"/></g>
<g><path style="opacity:0.942" fill="#fefffe" d="M 570.5,1418.5 C 577.532,1418.17 584.532,1418.5 591.5,1419.5C 617.614,1473.53 642.948,1527.86 667.5,1582.5C 658.827,1582.67 650.16,1582.5 641.5,1582C 634.167,1566.33 626.833,1550.67 619.5,1535C 593.494,1534.17 567.494,1534.33 541.5,1535.5C 534.5,1550.83 527.5,1566.17 520.5,1581.5C 511.5,1582.83 502.5,1582.83 493.5,1581.5C 519.454,1527.26 545.12,1472.93 570.5,1418.5 Z M 580.5,1444.5 C 591.478,1468.4 602.478,1492.4 613.5,1516.5C 591.5,1517.83 569.5,1517.83 547.5,1516.5C 558.512,1492.48 569.512,1468.48 580.5,1444.5 Z"/></g>
<g><path style="opacity:0.935" fill="#fefffe" d="M 693.5,1418.5 C 701.833,1418.5 710.167,1418.5 718.5,1418.5C 718.5,1466.5 718.5,1514.5 718.5,1562.5C 753.167,1562.5 787.833,1562.5 822.5,1562.5C 822.5,1569.17 822.5,1575.83 822.5,1582.5C 779.5,1582.5 736.5,1582.5 693.5,1582.5C 693.5,1527.83 693.5,1473.17 693.5,1418.5 Z"/></g>
<g><path style="opacity:0.948" fill="#fefffe" d="M 851.5,1418.5 C 893.167,1418.5 934.833,1418.5 976.5,1418.5C 976.5,1424.83 976.5,1431.17 976.5,1437.5C 943.167,1437.5 909.833,1437.5 876.5,1437.5C 876.5,1454.83 876.5,1472.17 876.5,1489.5C 905.5,1489.5 934.5,1489.5 963.5,1489.5C 963.5,1495.5 963.5,1501.5 963.5,1507.5C 934.5,1507.5 905.5,1507.5 876.5,1507.5C 876.5,1525.83 876.5,1544.17 876.5,1562.5C 910.833,1562.5 945.167,1562.5 979.5,1562.5C 979.5,1569.17 979.5,1575.83 979.5,1582.5C 936.833,1582.5 894.167,1582.5 851.5,1582.5C 851.5,1527.83 851.5,1473.17 851.5,1418.5 Z"/></g>
<g><path style="opacity:0.946" fill="#fefffe" d="M 1014.5,1418.5 C 1021.17,1418.33 1027.84,1418.5 1034.5,1419C 1071.98,1460.78 1109.82,1502.28 1148,1543.5C 1148.5,1501.83 1148.67,1460.17 1148.5,1418.5C 1156.83,1418.5 1165.17,1418.5 1173.5,1418.5C 1173.5,1473.17 1173.5,1527.83 1173.5,1582.5C 1166.49,1582.67 1159.49,1582.5 1152.5,1582C 1115.12,1541.4 1077.62,1500.9 1040,1460.5C 1039.5,1501.17 1039.33,1541.83 1039.5,1582.5C 1031.17,1582.5 1022.83,1582.5 1014.5,1582.5C 1014.5,1527.83 1014.5,1473.17 1014.5,1418.5 Z"/></g>
<g><path style="opacity:0.973" fill="#fefffe" d="M 1201.5,1418.5 C 1252.83,1418.5 1304.17,1418.5 1355.5,1418.5C 1355.5,1424.83 1355.5,1431.17 1355.5,1437.5C 1333.83,1437.5 1312.17,1437.5 1290.5,1437.5C 1290.5,1485.83 1290.5,1534.17 1290.5,1582.5C 1282.5,1582.5 1274.5,1582.5 1266.5,1582.5C 1266.5,1534.17 1266.5,1485.83 1266.5,1437.5C 1244.83,1437.5 1223.17,1437.5 1201.5,1437.5C 1201.5,1431.17 1201.5,1424.83 1201.5,1418.5 Z"/></g>
<g><path style="opacity:0.997" fill="#c24343" d="M 1798.5,1435.5 C 1833.24,1435.27 1856.74,1451.27 1869,1483.5C 1877.18,1521.63 1864.01,1549.46 1829.5,1567C 1789.93,1578.62 1760.43,1566.45 1741,1530.5C 1730.49,1499.71 1736.99,1473.21 1760.5,1451C 1771.87,1442.38 1784.53,1437.22 1798.5,1435.5 Z"/></g>
<g><path style="opacity:0.995" fill="#f0b620" d="M 2133.5,1435.5 C 2165.17,1435.37 2188,1449.37 2202,1477.5C 2213.44,1514.2 2203.27,1543.03 2171.5,1564C 2133,1579.83 2102.17,1570.66 2079,1536.5C 2068.73,1514.01 2069.06,1491.68 2080,1469.5C 2092.64,1449.93 2110.47,1438.6 2133.5,1435.5 Z"/></g>
<g><path style="opacity:0.991" fill="#3c9e66" d="M 2453.5,1435.5 C 2487.33,1434.89 2510.66,1450.06 2523.5,1481C 2533.27,1515.71 2523.27,1543.04 2493.5,1563C 2468.6,1575.14 2444.27,1574.14 2420.5,1560C 2393.31,1537.75 2385.48,1509.92 2397,1476.5C 2408.68,1452.99 2427.51,1439.33 2453.5,1435.5 Z"/></g>
<g><path style="opacity:0.995" fill="#6242a4" d="M 2804.5,1435.5 C 2836.02,1435 2858.85,1448.66 2873,1476.5C 2885.07,1511.6 2876.24,1540.1 2846.5,1562C 2813.37,1578.57 2783.87,1573.74 2758,1547.5C 2737.78,1519.04 2737.44,1490.37 2757,1461.5C 2769.65,1446.93 2785.49,1438.26 2804.5,1435.5 Z"/></g>
<g><path style="opacity:0.995" fill="#8598bf" d="M 3151.5,1435.5 C 3187.76,1435.28 3211.59,1452.28 3223,1486.5C 3229.77,1520.12 3218.61,1545.95 3189.5,1564C 3152.79,1579.45 3122.62,1571.28 3099,1539.5C 3084.68,1511.52 3086.68,1484.85 3105,1459.5C 3117.62,1445.77 3133.12,1437.77 3151.5,1435.5 Z"/></g>
<g><path style="opacity:0.992" fill="#a08050" d="M 3502.5,1435.5 C 3530.46,1434.89 3551.96,1446.22 3567,1469.5C 3576.78,1489.23 3578.11,1509.57 3571,1530.5C 3553.35,1563.91 3525.85,1576.74 3488.5,1569C 3453.96,1555.76 3438.12,1530.59 3441,1493.5C 3448.12,1459.88 3468.62,1440.55 3502.5,1435.5 Z"/></g>
<g><path style="opacity:0.997" fill="#f6872b" d="M 3837.5,1435.5 C 3878.12,1435.97 3902.62,1455.97 3911,1495.5C 3913.12,1530.93 3897.79,1555.27 3865,1568.5C 3829.54,1577.24 3802.2,1566.24 3783,1535.5C 3770.13,1505.94 3774.29,1479.11 3795.5,1455C 3807.65,1444.42 3821.65,1437.92 3837.5,1435.5 Z"/></g>
</svg>
